<svg width="16" height="14" viewBox="0 0 16 14" fill="none" xmlns="http://www.w3.org/2000/svg">
<path d="M1 6.5C0.723858 6.5 0.5 6.72386 0.5 7C0.5 7.27614 0.723858 7.5 1 7.5V7V6.5ZM15.3536 7.35355C15.5488 7.15829 15.5488 6.84171 15.3536 6.64645L12.1716 3.46447C11.9763 3.2692 11.6597 3.2692 11.4645 3.46447C11.2692 3.65973 11.2692 3.97631 11.4645 4.17157L14.2929 7L11.4645 9.82843C11.2692 10.0237 11.2692 10.3403 11.4645 10.5355C11.6597 10.7308 11.9763 10.7308 12.1716 10.5355L15.3536 7.35355ZM1 7V7.5H15V7V6.5H1V7Z" fill="#26292F"/>
</svg>
