<svg width="159" height="60" viewBox="0 0 159 60" fill="none" xmlns="http://www.w3.org/2000/svg">
<g clip-path="url(#clip0_1201_3950)">
<path fill-rule="evenodd" clip-rule="evenodd" d="M21.2154 20.7192C21.4868 20.0062 21.7239 19.3273 21.7239 18.6151V18.5809H27.5953V18.6828C26.7813 18.9207 26.5433 19.9043 26.5433 20.685L28.7835 37.3501C28.9872 38.9457 29.1567 39.8607 30.5144 40.8118V40.9137H23.9632V40.8118C25.1505 40.4386 25.3551 39.4208 25.3551 38.266L23.4205 21.9074L15.8182 41.3545C14.1206 40.0654 13.6455 39.1486 12.8315 37.2482L6.38307 21.9417L4.44846 36.5351C4.17711 38.6059 3.93911 40.0987 5.53477 40.8118V40.9137H0.00317383V40.8118C1.42934 39.556 1.63218 37.8928 1.90353 36.06L3.83815 21.8398C3.97427 20.8896 4.34659 19.5311 2.7861 18.6837V18.5818H8.72517V18.616C8.72517 19.1587 8.99742 19.6681 9.20025 20.1432L15.5811 35.1117L21.2154 20.7192ZM56.1367 29.5088C56.1367 36.4323 50.4005 41.4555 43.6474 41.4555C36.9267 41.4555 31.259 36.6361 31.259 29.6792C31.259 23.2308 36.8591 17.8335 43.9864 18.0039C51.1145 17.9697 56.1367 23.3994 56.1367 29.5088ZM35.1282 29.3727C35.1282 34.1254 38.4881 39.0115 43.8169 39.0115C48.9761 39.0115 52.2684 35.2451 52.2684 30.1886C52.2684 25.2321 49.1123 20.447 43.7493 20.447C38.4881 20.447 35.1282 24.2486 35.1282 29.3727ZM62.3075 36.5009C62.3075 38.4003 62.2732 39.758 64.0726 40.8109V40.9128H58.065V40.8109C59.8635 39.758 59.8635 38.4003 59.8635 36.5009V22.9586C59.8635 21.0582 59.8635 19.7005 58.0984 18.6819V18.58H63.0539V18.6142C63.1892 19.0217 63.3253 19.1912 63.5633 19.4626L64.0375 20.1414L76.4592 35.8211V22.9586C76.4592 21.0582 76.4935 19.7005 74.6941 18.6819V18.58H80.6683V18.6819C78.9032 19.6996 78.9032 21.0573 78.9032 22.9586V42C76.4935 41.185 75.4414 40.0654 73.9476 38.1299L62.3075 23.366V36.5009ZM100.151 22.7882C98.2845 21.6009 96.1119 20.8536 93.8716 20.8536C89.1884 20.8536 85.9285 24.282 85.9285 29.2023C85.9285 34.1912 89.3236 38.6374 94.5487 38.6374C97.0945 38.6374 99.6403 37.7215 101.779 36.5H101.881L100.15 40.4368C98.554 41.1832 96.7898 41.4546 95.0237 41.4546C87.0139 41.4546 82.0593 36.975 82.0593 29.7117C82.0593 22.6863 87.0139 18.0364 93.9726 18.0364C96.0433 18.0364 98.1474 18.4096 100.15 18.8847L100.151 22.7882ZM112.805 38.4688C115.114 38.6041 117.115 37.8243 118.812 36.3981H118.914L117.15 40.9128H103.199V40.8109C104.93 40.1997 104.727 37.689 104.727 36.161V23.366C104.727 21.8055 104.93 19.3273 103.199 18.6828V18.5809H109.682V18.6828C107.951 19.3273 108.189 21.8389 108.189 23.366V38.1632L112.805 38.4688ZM125.797 38.0623L130.107 38.4688C132.347 38.6735 134.689 37.9604 136.386 36.4666H136.488L134.96 40.9128H120.807V40.8109C122.538 40.1997 122.336 37.689 122.336 36.161V23.366C122.336 21.8055 122.538 19.3273 120.807 18.6828V18.5809H131.67C132.246 18.5809 132.823 18.6485 133.263 18.4114H133.365V22.3825H133.263C132.212 21.161 130.821 21.0248 129.26 21.0248C128.072 21.0248 126.884 21.0591 125.798 21.2619V27.5751H129.837C130.38 27.5751 130.921 27.5751 131.33 27.3714H131.432V30.9693H131.33C130.785 29.9848 129.361 30.0182 128.308 30.0182H125.797V38.0623ZM146.424 18.58C150.973 18.58 153.45 20.9554 153.45 24.044C153.45 27.0306 150.837 29.3727 148.055 30.0173L152.941 36.1601C154.368 37.9261 156.505 39.6904 158.441 40.9119H155.319C153.519 40.9119 152.4 40.4702 151.382 39.2144L147.24 34.0885L144.118 29.3033C146.834 28.8958 149.989 27.64 149.989 24.4496C149.989 22.0066 147.885 20.5804 145.612 20.6823C144.838 20.7224 144.066 20.8131 143.303 20.9536V36.1583C143.303 37.7197 143.099 40.197 144.832 40.8082V40.9101H138.349V40.8082C140.08 40.197 139.842 37.6863 139.842 36.1583V23.366C139.842 21.8055 140.08 19.3273 138.349 18.6828V18.5809L146.424 18.58Z" fill="black"/>
</g>
<defs>
<clipPath id="clip0_1201_3950">
<rect width="158.4" height="60" fill="white"/>
</clipPath>
</defs>
</svg>
