<svg width="199" height="60" viewBox="0 0 199 60" fill="none" xmlns="http://www.w3.org/2000/svg">
<path d="M38.6754 19.709L37.7825 18.1412C37.7125 18.0183 37.615 17.9132 37.4977 17.8342C37.3804 17.7552 37.2464 17.7044 37.1062 17.6858C36.966 17.6671 36.8234 17.6811 36.6895 17.7266C36.5556 17.7722 36.434 17.848 36.3343 17.9483L34.2807 20.0001C34.1306 20.151 34.0372 20.3491 34.0164 20.561C33.9955 20.7728 34.0486 20.9853 34.1664 21.1626C34.9152 22.3068 35.5153 23.5418 35.9522 24.8376C36.7683 27.26 36.9962 29.8418 36.6171 32.3697C36.2379 34.8976 35.2625 37.2989 33.7716 39.3753C32.2807 41.4516 30.317 43.1432 28.0428 44.3104C25.7687 45.4776 23.2494 46.0868 20.6932 46.0876C18.0618 46.0948 15.4694 45.4513 13.1468 44.2144L16.62 40.7394C18.7722 41.5534 21.1191 41.7032 23.3573 41.1694C25.5956 40.6355 27.6222 39.4427 29.1754 37.7449C30.7285 36.0472 31.7367 33.9226 32.0697 31.6458C32.4027 29.369 32.0451 27.0447 31.0432 24.9733C30.9796 24.8407 30.8851 24.7252 30.7677 24.6366C30.6502 24.5481 30.5132 24.489 30.3682 24.4643C30.2232 24.4397 30.0744 24.4501 29.9342 24.4949C29.7941 24.5396 29.6668 24.6174 29.5629 24.7215L27.4843 26.7858C27.3735 26.8965 27.2928 27.0337 27.25 27.1843C27.2072 27.335 27.2036 27.4941 27.2397 27.6465L27.4182 28.3929C27.7255 29.7005 27.6444 31.0693 27.1848 32.3314C26.7253 33.5934 25.9072 34.6939 24.8311 35.4977C23.755 36.3015 22.4677 36.7737 21.1271 36.8562C19.7865 36.9388 18.4509 36.6282 17.2843 35.9626L16.3682 35.4376C16.1932 35.3368 15.9897 35.2966 15.7895 35.3234C15.5892 35.3502 15.4035 35.4425 15.2611 35.5858L6.77716 44.0679C6.68455 44.1606 6.61279 44.2719 6.56668 44.3945C6.52058 44.5171 6.50119 44.6481 6.50981 44.7788C6.51843 44.9094 6.55487 45.0368 6.61668 45.1523C6.6785 45.2677 6.76426 45.3687 6.86823 45.4483L8.11823 46.4072C11.723 49.1852 16.1494 50.6853 20.7004 50.6715C24.3236 50.6669 27.8822 49.7119 31.021 47.9021C34.1598 46.0922 36.769 43.4907 38.5881 40.3572C40.4072 37.2238 41.3726 33.668 41.3879 30.0448C41.4033 26.4216 40.4679 22.8577 38.6754 19.709Z" fill="url(#paint0_linear_1201_3912)"/>
<path d="M33.2803 13.5396C29.6759 10.7606 25.2494 9.25981 20.6982 9.27353C17.0732 9.27635 13.5124 10.2304 10.3716 12.0403C7.23086 13.8503 4.62003 16.4528 2.80003 19.5878C0.980034 22.7227 0.0145898 26.2804 0.000164068 29.9054C-0.0142616 33.5303 0.922836 37.0956 2.71783 40.245L3.61068 41.811C3.681 41.9338 3.77864 42.0387 3.89604 42.1177C4.01343 42.1966 4.14743 42.2475 4.28764 42.2663C4.42785 42.2851 4.57052 42.2714 4.70457 42.2262C4.83863 42.181 4.96048 42.1055 5.06068 42.0057L7.11068 39.9557C7.2598 39.8046 7.3525 39.6068 7.37331 39.3955C7.39411 39.1843 7.34174 38.9723 7.22497 38.795C6.47548 37.6511 5.87537 36.4161 5.43926 35.12C4.6231 32.6976 4.39518 30.1157 4.77435 27.5879C5.15352 25.06 6.12888 22.6586 7.61982 20.5823C9.11076 18.506 11.0745 16.8143 13.3486 15.6471C15.6227 14.4799 18.142 13.8708 20.6982 13.87C23.3295 13.864 25.9215 14.5094 28.2428 15.7485L24.7678 19.2217C23.0271 18.562 21.1521 18.3348 19.3042 18.5596C17.4562 18.7844 15.6904 19.4546 14.1587 20.5125C12.6269 21.5704 11.3748 22.9844 10.5102 24.633C9.6455 26.2816 9.19405 28.1155 9.19461 29.9771C9.19461 30.1682 9.2464 31.0396 9.26247 31.1896C9.40329 32.5085 9.76995 33.7933 10.3464 34.9878C10.4102 35.1205 10.5049 35.2359 10.6225 35.3245C10.7401 35.413 10.8773 35.4721 11.0224 35.4967C11.1675 35.5214 11.3165 35.5109 11.4567 35.4662C11.597 35.4214 11.7245 35.3437 11.8285 35.2396L13.9071 33.1592C14.0178 33.0488 14.0985 32.912 14.1417 32.7617C14.1848 32.6114 14.1889 32.4526 14.1535 32.3003L13.975 31.5521C13.6673 30.2445 13.7482 28.8756 14.2077 27.6133C14.6672 26.3511 15.4853 25.2505 16.5616 24.4468C17.6378 23.643 18.9254 23.1711 20.2662 23.0889C21.607 23.0068 22.9425 23.3179 24.1089 23.9842L25.025 24.5092C25.2003 24.6092 25.4036 24.6488 25.6036 24.622C25.8036 24.5953 25.9893 24.5036 26.1321 24.361L34.6143 15.8789C34.707 15.7862 34.7789 15.6749 34.8252 15.5522C34.8714 15.4295 34.891 15.2984 34.8826 15.1676C34.8741 15.0368 34.8378 14.9093 34.7762 14.7936C34.7145 14.6779 34.6289 14.5767 34.525 14.4967L33.2803 13.5396Z" fill="url(#paint1_linear_1201_3912)"/>
<path d="M68.1473 35.6852C67.9926 35.5595 67.7982 35.493 67.599 35.4976C67.3997 35.5022 67.2086 35.5775 67.0598 35.7102C65.7295 36.7423 64.1866 37.6977 61.9313 37.6977C57.8027 37.6977 54.4437 34.2209 54.4437 29.9441C54.4437 25.6673 57.7902 22.1602 61.9009 22.1602C63.6866 22.1602 65.6152 22.9119 67.033 24.1566C67.1129 24.2493 67.2123 24.3233 67.324 24.3733C67.4357 24.4233 67.5571 24.448 67.6795 24.4459C67.7855 24.4374 67.8884 24.4059 67.981 24.3535C68.0735 24.301 68.1535 24.2289 68.2152 24.1423L69.558 22.7602C69.6435 22.6775 69.7109 22.578 69.7561 22.468C69.8013 22.3579 69.8232 22.2398 69.8205 22.1209C69.8155 22.0001 69.7856 21.8816 69.7328 21.7728C69.6799 21.6641 69.6053 21.5674 69.5134 21.4887C67.1687 19.4459 64.8134 18.5352 61.8687 18.5352C55.583 18.5352 50.4688 23.6816 50.4688 30.0066C50.4711 33.0301 51.6727 35.9293 53.8098 38.0682C55.9469 40.207 58.8452 41.4108 61.8687 41.4155C63.2891 41.4323 64.6988 41.168 66.0166 40.6378C67.3344 40.1076 68.5343 39.322 69.5473 38.3262C69.6362 38.2356 69.706 38.128 69.7526 38.01C69.7993 37.8919 69.8217 37.7656 69.8187 37.6387C69.8164 37.5377 69.7936 37.4382 69.7519 37.3461C69.7102 37.2541 69.6503 37.1714 69.5759 37.103L68.1473 35.6852Z" fill="#3D3652"/>
<path d="M77.9199 18.8457H75.8859C75.659 18.8533 75.4435 18.9471 75.2833 19.108C75.123 19.2689 75.0301 19.4848 75.0234 19.7118V40.2475C75.0297 40.4748 75.1224 40.6911 75.2827 40.8524C75.4429 41.0137 75.6587 41.1077 75.8859 41.1153H77.9199C78.1471 41.1077 78.3629 41.0137 78.5231 40.8524C78.6834 40.6911 78.7761 40.4748 78.7824 40.2475V19.7118C78.7757 19.4848 78.6828 19.2689 78.5226 19.108C78.3623 18.9471 78.1468 18.8533 77.9199 18.8457Z" fill="#3D3652"/>
<path d="M101.995 25.7582C101.995 21.9475 98.8571 18.8457 95 18.8457H86.6125C86.3834 18.8466 86.1641 18.9383 86.0024 19.1006C85.8408 19.2629 85.75 19.4827 85.75 19.7118V40.2475C85.7495 40.4769 85.8401 40.6971 86.0018 40.8598C86.1635 41.0225 86.3831 41.1144 86.6125 41.1153H88.6161C88.8433 41.1077 89.0591 41.0137 89.2193 40.8524C89.3796 40.6911 89.4723 40.4748 89.4786 40.2475V32.61H93.6821L97.7089 40.6725C97.7822 40.8046 97.8897 40.9146 98.0201 40.9909C98.1504 41.0673 98.2989 41.1071 98.45 41.1064H100.854C101.005 41.1115 101.156 41.0763 101.29 41.0045C101.424 40.9327 101.536 40.8268 101.616 40.6975C101.692 40.561 101.732 40.4073 101.732 40.2511C101.732 40.0948 101.692 39.9412 101.616 39.8046L97.5304 32.1903C100.291 30.9636 101.995 28.5243 101.995 25.7582ZM98.2357 25.8207C98.2357 27.7546 96.6411 29.3921 94.7536 29.3921H89.5411V22.4082H94.7464C96.6375 22.4082 98.2286 23.9707 98.2286 25.8207H98.2357Z" fill="#3D3652"/>
<path d="M123.887 35.6852C123.732 35.5595 123.538 35.493 123.338 35.4976C123.139 35.5022 122.948 35.5775 122.799 35.7102C121.469 36.7423 119.926 37.6977 117.671 37.6977C113.542 37.6977 110.183 34.2209 110.183 29.9441C110.183 25.6673 113.528 22.1602 117.638 22.1602C119.424 22.1602 121.353 22.9119 122.772 24.1566C122.853 24.2502 122.953 24.3247 123.066 24.3748C123.178 24.4248 123.301 24.4491 123.424 24.4459C123.53 24.4374 123.633 24.4059 123.726 24.3535C123.818 24.301 123.898 24.2289 123.96 24.1423L125.303 22.7602C125.388 22.6774 125.455 22.5778 125.5 22.4678C125.545 22.3578 125.566 22.2397 125.563 22.1209C125.559 22.0001 125.53 21.8815 125.477 21.7727C125.425 21.6639 125.35 21.5672 125.258 21.4887C122.919 19.4459 120.563 18.5352 117.619 18.5352C111.333 18.5352 106.219 23.6816 106.219 30.0066C106.221 33.0301 107.423 35.9293 109.56 38.0682C111.697 40.207 114.595 41.4108 117.619 41.4155C119.039 41.4321 120.449 41.1677 121.766 40.6375C123.084 40.1074 124.284 39.3219 125.297 38.3262C125.386 38.2353 125.456 38.1275 125.503 38.0091C125.549 37.8907 125.572 37.7641 125.569 37.6369C125.566 37.5359 125.544 37.4363 125.502 37.3443C125.46 37.2522 125.4 37.1695 125.326 37.1012L123.887 35.6852Z" fill="#3D3652"/>
<path d="M142.588 37.6671H134.517V19.7118C134.51 19.4848 134.417 19.2689 134.257 19.108C134.097 18.9471 133.881 18.8533 133.654 18.8457H131.62C131.391 18.8466 131.172 18.9383 131.01 19.1006C130.849 19.2629 130.758 19.4827 130.758 19.7118V40.2475C130.757 40.4769 130.848 40.6971 131.01 40.8598C131.171 41.0225 131.391 41.1144 131.62 41.1153H142.588C142.702 41.1151 142.814 41.0925 142.919 41.0487C143.024 41.005 143.12 40.941 143.2 40.8604C143.28 40.7798 143.344 40.6842 143.387 40.5791C143.431 40.4739 143.453 40.3612 143.452 40.2475V38.5421C143.454 38.4278 143.432 38.3144 143.389 38.2084C143.346 38.1024 143.283 38.0059 143.203 37.9246C143.122 37.8432 143.027 37.7786 142.921 37.7344C142.816 37.6902 142.703 37.6674 142.588 37.6671Z" fill="#3D3652"/>
<path d="M160.864 22.3212C161.093 22.3203 161.312 22.2286 161.474 22.0663C161.635 21.904 161.726 21.6842 161.726 21.4551V19.7176C161.726 19.4886 161.635 19.2688 161.474 19.1065C161.312 18.9442 161.093 18.8525 160.864 18.8516H148.542C148.313 18.8525 148.094 18.9442 147.932 19.1065C147.77 19.2688 147.68 19.4886 147.68 19.7176V40.2533C147.679 40.4827 147.77 40.7029 147.931 40.8656C148.093 41.0284 148.313 41.1203 148.542 41.1212H160.864C161.093 41.1203 161.313 41.0284 161.474 40.8656C161.636 40.7029 161.727 40.4827 161.726 40.2533V38.548C161.726 38.3189 161.635 38.0992 161.474 37.9368C161.312 37.7745 161.093 37.6829 160.864 37.6819H151.399V31.5551H159.348C159.577 31.5547 159.797 31.4632 159.959 31.3008C160.121 31.1385 160.212 30.9184 160.212 30.6891V28.9533C160.206 28.7258 160.113 28.5092 159.952 28.3479C159.791 28.1865 159.575 28.0927 159.348 28.0855H151.405V22.3212H160.864Z" fill="#3D3652"/>
<defs>
<linearGradient id="paint0_linear_1201_3912" x1="13.395" y1="51.9965" x2="42.5379" y2="22.8537" gradientUnits="userSpaceOnUse">
<stop stop-color="#B090F5"/>
<stop offset="1" stop-color="#5FBFFF"/>
</linearGradient>
<linearGradient id="paint1_linear_1201_3912" x1="-1.14467" y1="37.0985" x2="28" y2="7.95568" gradientUnits="userSpaceOnUse">
<stop stop-color="#68D7FA"/>
<stop offset="1" stop-color="#4EE498"/>
</linearGradient>
</defs>
</svg>
