<svg width="175" height="60" viewBox="0 0 175 60" fill="none" xmlns="http://www.w3.org/2000/svg">
<g clip-path="url(#clip0_1536_7318)">
<path d="M10.4288 24.3621L13.6843 33.5812H7.17296L10.4288 24.3621ZM8.97296 18.1656L0 41.3064H4.43483L5.8879 37.1535H14.9666L16.4546 41.3064H20.8545L11.9872 18.1659L8.97296 18.1656ZM29.2274 29.4106C31.0302 29.4106 32.3095 30.5441 33.2272 31.9072L36.2476 30.1865C34.9006 27.7249 32.2126 26.071 29.2274 26.071C24.8631 26.071 21.2573 29.5707 21.2573 33.8834C21.2573 38.1968 24.8631 41.6962 29.2274 41.6962C32.2126 41.6962 34.9006 40.0423 36.2476 37.5807L33.2272 35.863C32.3064 37.2231 31.0302 38.3566 29.2274 38.3566C26.7688 38.3566 24.8983 36.2816 24.8983 33.8834C24.8983 31.4859 26.7688 29.4106 29.2274 29.4106ZM59.0281 32.3927C59.5516 30.4484 61.1605 29.2827 63.0954 29.2827C65.0306 29.2827 66.5717 30.4803 67.0982 32.3927H59.0281ZM63.0927 26.071C58.7283 26.071 55.2519 29.5707 55.2519 33.8834C55.2519 38.1968 58.8577 41.6962 63.2221 41.6962C65.8806 41.6962 68.2068 40.4637 69.651 38.4875L66.9275 36.4791C65.9101 37.6767 64.8276 38.4234 63.219 38.4234C61.1222 38.4234 59.4811 37.0314 58.9899 35.1478H70.7979C70.8626 34.8574 70.9273 34.3078 70.9273 33.8834C70.9331 29.5704 67.457 26.071 63.0927 26.071ZM45.5438 26.071C41.2265 26.071 38.1327 29.5707 38.1327 33.8834V41.3067H41.7351V33.8834C41.7351 31.4859 43.1116 29.4106 45.5465 29.4106C47.9787 29.4106 49.3552 31.4856 49.3552 33.8834V41.3067H52.958V33.8834C52.9549 29.5704 49.858 26.071 45.5438 26.071ZM173.052 33.2992C172.396 32.8779 171.543 32.5874 170.594 32.4216C169.511 32.2271 168.82 32.0989 168.397 31.8055C167.97 31.5147 167.838 31.1253 167.838 30.672C167.838 29.7652 168.591 29.0181 169.706 29.0181C170.82 29.0181 171.476 29.6345 171.773 30.8986L174.987 30.3175C174.564 27.6899 172.723 26.071 169.741 26.071C166.691 26.071 164.494 28.2103 164.494 30.6079C164.494 32.3259 165.118 33.4593 166.103 34.1745C166.823 34.6915 167.744 35.0172 168.923 35.2089C169.611 35.3076 170.332 35.4386 170.791 35.6625C171.447 35.9878 171.643 36.5052 171.643 37.0575C171.643 37.9993 170.823 38.7433 169.708 38.7433C168.594 38.7433 167.773 38.1269 167.706 36.6358H164.426V36.8306C164.426 40.269 167.179 41.6932 169.706 41.6932C172.264 41.6932 174.984 39.9755 174.984 37.0572C174.987 35.3745 174.299 34.1104 173.052 33.2992ZM143.769 19.9039H140.131V23.7287H143.769V19.9039ZM143.772 26.4577H140.131V41.3037H143.772V26.4577ZM99.1516 20.5607H95.5109V26.4605H93.9372V29.8001H95.5109V36.7698C95.5109 39.8506 97.7754 41.6962 100.89 41.6962C101.284 41.6962 101.71 41.6643 102.005 41.6002V38.3569H101.71C100.102 38.3569 99.1516 37.6448 99.1516 35.9271V29.8001H102.005V26.4608H99.1516V20.5607ZM89.6023 29.28C88.4555 28.5357 87.1762 28.2744 86.0291 28.0475C84.9791 27.85 83.897 27.7221 82.9118 27.0738C82.1912 26.5884 81.7325 25.8097 81.7325 24.7719C81.7325 23.0221 83.2733 21.5632 85.1116 21.5632C88.3261 21.5632 88.6201 24.9348 88.6201 24.9348L92.4258 24.2865C92.2287 22.3716 90.7522 18 85.1116 18C81.044 18 77.8296 21.0459 77.8296 24.7747C77.8296 27.4025 79.1414 29.5413 81.4028 30.5763C82.8793 31.2562 83.9617 31.3871 84.9791 31.6138C86.0938 31.8753 86.8466 32.0032 87.4378 32.4887C88.1259 33.0407 88.4877 33.9126 88.4877 34.7584C88.4877 36.5721 86.979 37.9671 85.1086 37.9671C84.2558 37.9671 81.7941 37.5776 81.7941 34.3021H77.859C77.859 40.4291 83.2381 41.5306 85.1086 41.5306C89.1436 41.5306 92.455 38.5167 92.455 34.7556C92.455 32.3927 91.4376 30.4803 89.6023 29.28ZM154.418 38.3566C151.959 38.3566 150.086 36.2816 150.086 33.8834C150.086 31.4859 151.957 29.4106 154.418 29.4106C156.877 29.4106 158.747 31.4856 158.747 33.8834C158.75 36.2813 156.877 38.3566 154.418 38.3566ZM154.418 26.071C150.054 26.071 146.448 29.5707 146.448 33.8834C146.448 38.1968 150.057 41.6962 154.418 41.6962C158.78 41.6962 162.388 38.1968 162.388 33.8834C162.388 29.5704 158.782 26.071 154.418 26.071ZM116.095 33.8841C116.095 36.2819 114.557 38.3569 112.215 38.3569H112.142C109.804 38.3569 108.263 36.2819 108.263 33.8841V26.4608H104.801V33.8837C104.801 38.194 107.992 41.6962 112.142 41.6962H112.215C116.365 41.6962 119.556 38.1968 119.556 33.8837V26.4608H116.095V33.8841ZM129.338 38.3687C126.938 38.3687 124.991 36.3606 124.991 33.8841C124.991 31.4081 126.938 29.3994 129.338 29.3994C131.738 29.3994 133.685 31.4078 133.685 33.8841C133.685 36.3603 131.738 38.3687 129.338 38.3687ZM133.667 27.5888C131.917 26.0367 129.338 26.0716 129.338 26.0716C124.976 26.0716 121.341 29.571 121.341 33.8841C121.341 38.1943 124.976 41.6965 129.338 41.6965C133.837 41.6965 137.308 38.3687 137.308 33.8871V18.1516H133.667V27.5888Z" fill="black"/>
</g>
<defs>
<clipPath id="clip0_1536_7318">
<rect width="174.987" height="24" fill="white" transform="translate(0 18)"/>
</clipPath>
</defs>
</svg>
