<svg width="256" height="256" viewBox="0 0 256 256" fill="none" xmlns="http://www.w3.org/2000/svg">
<rect width="256" height="256" fill="#DD1600"/>
<path fill-rule="evenodd" clip-rule="evenodd" d="M33 83H47.8226V172.147H33V83ZM191.602 172.147H224V122.386H209.177V157.325H192.449C175.932 157.325 162.38 143.984 162.38 127.68C162.38 111.163 175.721 98.0344 192.449 98.0344H224V83.2118H191.602C166.827 83.2118 146.711 103.116 146.711 127.68C146.711 152.243 166.615 172.147 191.602 172.147ZM91.867 83H59.469V172.147H91.867C116.642 172.147 136.758 152.243 136.758 127.68C136.758 103.116 116.642 83 91.867 83ZM91.02 157.325H74.2916V97.8226H91.02C107.537 97.8226 121.089 111.163 121.089 127.468C121.089 143.984 107.537 157.325 91.02 157.325Z" fill="#F7F5F2"/>
</svg>
