<svg width="32" height="32" viewBox="0 0 32 32" fill="none" xmlns="http://www.w3.org/2000/svg">
<rect width="32" height="32" fill="#DD1600"/>
<path fill-rule="evenodd" clip-rule="evenodd" d="M4.125 10.375H5.97783V21.5184H4.125V10.375ZM23.9503 21.5184H28V15.2982H26.1472V19.6656H24.0561C21.9915 19.6656 20.2975 17.9981 20.2975 15.9599C20.2975 13.8954 21.9651 12.2543 24.0561 12.2543H28V10.4015H23.9503C20.8534 10.4015 18.3388 12.8896 18.3388 15.9599C18.3388 19.0303 20.8269 21.5184 23.9503 21.5184ZM11.4834 10.375H7.43362V21.5184H11.4834C14.5802 21.5184 17.0948 19.0303 17.0948 15.9599C17.0948 12.8896 14.5802 10.375 11.4834 10.375ZM11.3775 19.6656H9.28645V12.2278H11.3775C13.4421 12.2278 15.1361 13.8954 15.1361 15.9335C15.1361 17.9981 13.4421 19.6656 11.3775 19.6656Z" fill="#F7F5F2"/>
</svg>
