<svg width="170" height="32" viewBox="0 0 170 32" fill="none" xmlns="http://www.w3.org/2000/svg">
<g clip-path="url(#clip0_1376_550)">
<path fill-rule="evenodd" clip-rule="evenodd" d="M75.6626 5.16897C78.3388 5.16897 80.7717 6.38543 82.4139 8.33176L85.151 5.59473C82.8397 2.97934 79.4336 1.33713 75.6626 1.33713C68.6679 1.33713 63.0114 6.99366 63.0114 13.9883C63.0114 20.9829 68.6679 26.6395 75.6626 26.6395C79.4336 26.6395 82.8397 24.9972 85.151 22.3818L82.4139 19.6448C80.8325 21.5912 78.3996 22.8076 75.6626 22.8076C70.7967 22.8076 66.9041 18.8541 66.9041 14.0491C66.8433 9.12246 70.7967 5.16897 75.6626 5.16897ZM104.918 6.87201H101.147V8.81834C99.5052 7.60188 97.498 6.87201 95.3084 6.87201C90.0168 6.87201 85.6984 11.1904 85.6984 16.482C85.6984 21.7736 90.0168 26.092 95.3084 26.092C97.498 26.092 99.5052 25.3622 101.147 24.1457V25.8488H104.918V6.87201ZM95.3084 22.4427C92.0239 22.4427 89.4086 19.7665 89.4086 16.5429C89.4086 13.2584 92.0848 10.643 95.3084 10.643C98.5928 10.643 101.208 13.3192 101.208 16.5429C101.269 19.7665 98.5928 22.4427 95.3084 22.4427ZM163.734 6.87201H159.963V8.81834C158.321 7.60188 156.314 6.87201 154.124 6.87201C148.833 6.87201 144.514 11.1904 144.514 16.482C144.514 21.7736 148.833 26.092 154.124 26.092C156.314 26.092 158.321 25.3622 159.963 24.1457V25.8488H163.734V6.87201ZM154.185 22.4427C150.901 22.4427 148.285 19.7665 148.285 16.5429C148.285 13.2584 150.961 10.643 154.185 10.643C157.469 10.643 160.085 13.3192 160.085 16.5429C160.085 19.7665 157.469 22.4427 154.185 22.4427ZM128.943 6.87201H132.714V25.7879H128.943V6.87201ZM116.961 6.87201C114.772 6.87201 112.765 7.60188 111.122 8.81834V6.87201H107.351V31.3836H111.122V24.1457C112.765 25.3622 114.772 26.092 116.961 26.092C122.253 26.092 126.571 21.7736 126.571 16.482C126.571 11.1904 122.314 6.87201 116.961 6.87201ZM116.961 22.4427C113.677 22.4427 111.062 19.7665 111.062 16.5429C111.062 13.2584 113.738 10.643 116.961 10.643C120.246 10.643 122.861 13.3192 122.861 16.5429C122.922 19.7665 120.246 22.4427 116.961 22.4427ZM166.228 1.33713H169.999V25.8488H166.228V1.33713ZM130.829 -0.000976562C129.552 -0.000976562 128.518 1.03301 128.518 2.31029C128.518 3.58757 129.552 4.62156 130.829 4.62156C132.106 4.62156 133.14 3.58757 133.14 2.31029C133.14 1.03301 132.106 -0.000976562 130.829 -0.000976562ZM141.23 20.9221V10.5214H143.784V6.93283H141.23V1.33713H137.519V6.93283H134.965V10.5214H137.519V21.5303C137.58 23.9024 139.527 25.8488 142.02 25.8488H144.028V22.5035H142.811C141.777 22.4427 141.23 21.652 141.23 20.9221Z" fill="#F7F5F2"/>
<path fill-rule="evenodd" clip-rule="evenodd" d="M0 0.852539H4.2576V26.459H0V0.852539ZM45.5564 26.459H54.8623V12.1656H50.6046V22.2014H45.7996C41.0555 22.2014 37.1628 18.3695 37.1628 13.6862C37.1628 8.94198 40.9946 5.17096 45.7996 5.17096H54.8623V0.913362H45.5564C38.4401 0.913362 32.6619 6.63071 32.6619 13.6862C32.6619 20.7416 38.3792 26.459 45.5564 26.459ZM16.9088 0.852539H7.60286V26.459H16.9088C24.025 26.459 29.8032 20.7416 29.8032 13.6862C29.8032 6.63071 24.025 0.852539 16.9088 0.852539ZM16.6655 22.2014H11.8605V5.11014H16.6655C21.4097 5.11014 25.3023 8.94199 25.3023 13.6253C25.3023 18.3695 21.4097 22.2014 16.6655 22.2014Z" fill="#F7F5F2"/>
</g>
<defs>
<clipPath id="clip0_1376_550">
<rect width="170" height="31.3846" fill="white"/>
</clipPath>
</defs>
</svg>
