<svg width="173" height="50" viewBox="0 0 173 50" fill="none" xmlns="http://www.w3.org/2000/svg">
<g clip-path="url(#clip0_2833_5504)">
<mask id="mask0_2833_5504" style="mask-type:luminance" maskUnits="userSpaceOnUse" x="0" y="15" width="105" height="20">
<path d="M104.833 15H0V34.8455H104.833V15Z" fill="white"/>
</mask>
<g mask="url(#mask0_2833_5504)">
<path d="M3.68004 15C3.87049 15 4.0428 15.0778 4.16775 15.203C4.29271 15.3283 4.3703 15.501 4.3703 15.6919V33.7455C4.3703 33.9364 4.29271 34.1091 4.16775 34.2343C4.0428 34.3596 3.87049 34.4374 3.68004 34.4374H0.690259C0.507869 34.4374 0.341603 34.3657 0.217658 34.2495C0.0836372 34.1232 0 33.9444 0 33.7455V15.6919C0 15.502 0.0765835 15.3303 0.19952 15.2051C0.322457 15.0798 0.497793 15 0.690259 15H3.68004Z" fill="black"/>
<path d="M87.6972 22.8806C86.8678 22.3392 84.9734 21.9452 83.6362 21.918C82.1408 21.8887 80.3522 22.419 80.3522 22.419C80.3522 22.419 80.3623 21.3806 80.4006 20.3867C80.46 18.7432 82.8512 18.3786 84.0736 18.3907C85.31 18.4028 86.7016 18.7624 87.5339 19.0159C87.9209 19.1351 88.3118 18.8654 88.3451 18.4614L88.5093 16.4442C88.5265 16.1705 88.3713 15.9099 88.1133 15.8058C86.8961 15.318 85.4027 15.0725 83.8055 15.0564C82.9429 15.0483 81.3619 14.9452 79.7587 15.6069C78.5747 16.0998 76.6923 17.3351 76.6701 19.5988C76.648 21.8048 76.6339 23.3038 76.6137 25.2786C76.5885 27.7867 76.5936 27.2968 76.5744 29.3008C76.5633 30.4109 77.0319 32.5058 78.2875 33.4695C79.9008 34.7109 81.3951 34.8271 82.8905 34.8412C84.5159 34.8574 85.6375 34.8392 87.0109 34.118C88.7603 33.1978 89.4969 31.4038 89.5593 29.4725C89.6148 28.1897 89.5775 27.6271 89.516 26.5745C89.4687 25.5796 89.6269 24.1392 87.6972 22.8806ZM85.3624 30.6422C84.8817 31.2715 83.7874 31.4048 82.953 31.3968C82.1045 31.3887 81.2863 31.2644 80.7462 30.5968C80.192 29.9422 80.2998 29.1654 80.3109 28.1271C80.324 26.8442 80.331 26.0513 80.331 26.0513C80.331 26.0513 81.7609 25.4452 83.0981 25.5018C83.8891 25.5382 84.7799 25.5473 85.321 26.1584C85.8622 26.7553 85.8995 27.2745 85.8884 28.3988C85.8783 29.4079 85.8581 30.0129 85.3624 30.6422Z" fill="black"/>
<path d="M74.3779 27.5777C74.387 26.6555 73.9144 24.9928 72.2799 24.4423C71.8789 24.309 71.6491 24.2343 71.4627 24.2322C71.9242 24.0636 72.3727 23.8231 72.9823 23.2524C73.5778 22.6817 73.8741 21.7767 73.8852 20.6373C73.8932 19.8302 73.8882 20.3494 73.8942 19.6999C73.9104 18.0706 73.205 16.6514 71.7892 15.8585C70.6737 15.2423 69.137 15.0252 67.7414 15.011C64.8937 14.9827 62.9015 15.7413 62.0621 16.2373C61.8596 16.3646 61.7427 16.5797 61.7548 16.8252L61.8928 18.8595C61.917 19.2918 62.3604 19.5706 62.7644 19.4019C63.7177 19.008 65.3481 18.4332 66.902 18.4191C67.6497 18.412 68.7279 18.4514 69.272 18.6878C69.8877 18.9393 70.2706 19.4767 70.2656 20.0383C70.2737 20.6585 70.2747 20.5575 70.2706 20.9464C70.2626 21.7969 69.9583 21.9959 69.6822 22.2383C69.2902 22.5807 68.5707 22.6747 67.7061 22.7666C67.1589 22.8332 65.8348 22.907 64.6982 22.9242C64.3525 22.9353 64.0764 23.206 64.0734 23.5524L64.0392 25.5989C64.0361 25.9454 64.3062 26.2363 64.6659 26.2393C65.6585 26.2494 67.0098 26.2918 68.0155 26.4019C69.3799 26.5595 70.5558 26.9464 70.5447 28.0848C70.5336 29.209 70.5498 27.5797 70.5326 29.2666C70.5155 30.9535 69.0463 31.1838 66.8607 31.1615C65.4368 31.1474 63.8034 30.511 62.8441 30.0696C62.443 29.8928 61.9805 30.1615 61.9472 30.5939L61.7679 32.7686C61.7507 32.9989 61.8636 33.2312 62.05 33.3625C62.7503 33.8161 64.5813 34.8151 67.17 34.8403C69.0252 34.8585 71.3589 34.4636 72.5903 33.5817C73.0246 33.2686 74.3316 32.0565 74.3497 30.211C74.3588 29.2888 74.3517 30.0231 74.3628 28.8555C74.3739 27.7454 74.3679 28.3797 74.3759 27.5726L74.3779 27.5777Z" fill="black"/>
<path d="M57.8253 20.0841C56.5809 19.4225 55.1459 19.0911 53.5347 19.076C51.2916 19.0538 49.117 19.3204 47.8312 19.9275C47.6004 20.0406 47.4533 20.2841 47.4654 20.5437L47.5591 22.678C47.5833 23.1103 48.0126 23.4033 48.4167 23.2629C49.4707 22.8699 51.3168 22.3548 53.0711 22.3427C54.2501 22.3396 54.8537 22.4608 55.2679 22.6962C55.683 22.9305 55.8523 23.1921 55.8463 23.7972C55.8412 24.3022 55.8332 25.1235 55.8332 25.1235C55.8332 25.1235 53.7926 24.9588 52.8001 25.0073C51.4477 25.08 50.166 25.2265 48.7492 25.9326C47.5783 26.5124 46.6351 27.3538 46.6169 29.1699C46.6089 29.9911 46.6069 30.2225 46.5978 31.0871C46.5857 32.3558 47.3515 33.373 48.4106 33.9164C49.5694 34.5043 50.8754 34.8204 53.2918 34.8447C56.599 34.878 58.6698 33.5144 59.3369 32.9871C59.4961 32.873 59.5847 32.6871 59.5868 32.4851L59.6734 23.7346C59.6764 21.9467 59.0698 20.7295 57.8253 20.0831V20.0841ZM55.1872 30.8851C54.4778 31.3679 53.4127 31.4437 52.5784 31.4507C51.7299 31.4568 50.7394 31.2447 50.3695 30.8376C50.042 30.4881 50.173 30.3891 50.1781 29.8841C50.1851 29.1487 50.5076 28.5901 51.2583 28.3093C52.009 28.0144 53.0872 28.0245 53.7634 28.0174C54.9857 28.0002 55.8473 28.1679 55.8473 28.1679L55.8402 28.8305C55.8271 30.1275 55.8966 30.4022 55.1872 30.8861V30.8851Z" fill="black"/>
<path d="M30.8099 25.3214C28.9709 25.0871 27.2629 24.7669 26.7913 24.4881C26.3197 24.1951 26.3872 23.2154 26.6774 22.8719C27.0997 22.3861 28.9679 22.5053 30.0451 22.6315C31.4095 22.7891 32.4857 23.0739 33.1598 23.2972C33.5609 23.4305 33.967 23.1608 34.0143 22.7436L34.2653 20.6699C34.2975 20.3679 34.1272 20.077 33.841 19.9739C32.3507 19.4255 31.2322 19.0972 28.8016 19.0729C27.7375 19.0628 26.5142 19.1659 25.4027 19.5578C23.6272 20.1749 23.1123 21.4093 22.9863 22.5032C22.9238 23.0507 22.8775 23.3234 22.8704 24.0305C22.8584 25.2123 23.0941 26.1669 23.7491 26.7931C24.4041 27.4335 25.8522 27.9386 28.064 28.2628C30.032 28.5416 30.4895 28.777 30.8321 29.0255C31.3037 29.376 31.2483 30.5578 30.9288 30.8285C30.4069 31.2699 29.1976 31.3588 27.7315 31.2436C26.2653 31.1285 24.7165 30.6659 23.7995 30.3537C23.3844 30.2052 22.95 30.4891 22.9168 30.9214L22.7515 33.0679C22.7344 33.3275 22.8614 33.5739 23.0901 33.6911C24.2489 34.3224 26.7893 34.8234 28.7885 34.8436C30.9893 34.8659 32.7185 34.4356 33.6758 33.6234C34.7631 32.7113 34.9041 31.5598 34.9192 30.0608C34.9303 28.9224 34.9585 27.5234 34.233 26.7527C33.5206 26.0396 32.7628 25.5699 30.8099 25.3204V25.3214Z" fill="black"/>
<path d="M44.0368 30.9659C42.875 31.385 42.1243 31.385 41.6446 30.9356C41.4884 30.7749 41.4189 30.5154 41.4249 29.8952L41.5056 23.2527L43.922 23.277C44.2958 23.281 44.6011 22.981 44.6042 22.6063L44.6404 20.3861C44.6445 20.0255 44.3593 19.7204 43.9855 19.7164L41.5106 19.6921L41.5086 16.8416C41.5126 16.481 41.2133 16.176 40.8536 16.1719L37.9495 16.1426C37.5897 16.1386 37.2854 16.4386 37.2773 17.1739L37.3388 30.9921C37.3328 31.5689 37.2048 32.879 38.1742 33.7396C39.1436 34.6002 40.4928 34.8881 41.8582 34.8416C42.9385 34.8053 43.6701 34.7083 44.3472 34.4729C44.6535 34.3659 44.8974 34.1325 44.8863 33.8002L44.8077 31.6083C44.7825 31.2042 44.4087 30.8325 44.0379 30.9659H44.0368Z" fill="black"/>
<path d="M16.1914 33.7271C16.1874 34.0877 16.4726 34.422 16.8464 34.426L19.7304 34.421C20.0902 34.425 20.3955 34.1109 20.3985 33.7351" fill="black"/>
<path d="M19.1731 20.7301C18.243 19.9129 16.9028 19.5695 15.76 19.3068C14.8461 19.0967 12.2443 19.1139 11.027 19.4473C8.88366 20.0341 7.77824 20.7412 7.37214 21.1119C7.24114 21.2402 7.15348 21.4129 7.15146 21.5998L7.14844 33.7109C7.14844 34.0927 7.45679 34.4028 7.8387 34.4028H10.6592C11.0401 34.4028 11.3494 34.0937 11.3494 33.7109C11.3494 33.7109 11.3424 24.42 11.3424 24.0634C11.3424 23.025 12.5929 22.7341 13.916 22.7341C14.9237 22.7341 16.1893 23.025 16.1893 24.1119C16.1893 24.4776 16.1843 33.722 16.1843 33.722C16.1843 34.1038 16.4936 34.4139 16.8745 34.4139H19.7142C20.0951 34.4139 20.4044 34.1048 20.4044 33.722C20.4044 33.722 20.4185 24.2149 20.4185 23.617C20.4185 21.9856 20.0245 21.4755 19.1761 20.7301H19.1731Z" fill="black"/>
<path d="M104.831 20.9203C104.858 18.0951 103.879 16.989 102.923 16.3163C101.775 15.4991 99.9245 15.0324 98.3082 15.0112C96.6959 15.0314 94.9436 15.4991 93.7948 16.3163C92.8395 16.989 91.8601 18.0951 91.8873 20.9203C91.9024 22.4648 91.9024 27.4011 91.8873 28.9375C91.8601 31.7627 92.8395 32.8688 93.7948 33.5415C94.9436 34.3587 96.7937 34.8254 98.41 34.8466C100.022 34.8264 101.775 34.3587 102.923 33.5415C103.879 32.8688 104.858 31.7627 104.831 28.9375C104.816 27.4001 104.816 22.4637 104.831 20.9203ZM100.434 30.8658C100.006 31.2688 99.0378 31.4607 98.3596 31.4718C97.6814 31.4607 96.713 31.2678 96.2838 30.8658C95.8071 30.4143 95.7688 29.9961 95.785 28.3668C95.793 27.5132 95.793 22.3345 95.785 21.49C95.7688 19.8607 95.8071 19.4425 96.2838 18.991C96.712 18.588 97.6804 18.3961 98.3586 18.385C99.0367 18.3961 100.005 18.589 100.434 18.991C100.911 19.4425 100.949 19.8607 100.933 21.49C100.925 22.3334 100.925 27.5132 100.933 28.3668C100.949 29.9961 100.911 30.4143 100.434 30.8658Z" fill="black"/>
</g>
</g>
<defs>
<clipPath id="clip0_2833_5504">
<rect width="105" height="20" fill="white" transform="translate(0 15)"/>
</clipPath>
</defs>
</svg>
