<svg width="125" height="23" viewBox="0 0 125 23" fill="none" xmlns="http://www.w3.org/2000/svg">
<g clip-path="url(#clip0_1205_1564)">
<path fill-rule="evenodd" clip-rule="evenodd" d="M55.3265 3.78076C57.2834 3.78076 59.0623 4.67024 60.2631 6.0934L62.2644 4.09208C60.5744 2.1797 58.0839 0.9789 55.3265 0.9789C50.212 0.9789 46.0759 5.11498 46.0759 10.2295C46.0759 15.344 50.212 19.4801 55.3265 19.4801C58.0839 19.4801 60.5744 18.2793 62.2644 16.3669L60.2631 14.3656C59.1068 15.7887 57.3278 16.6782 55.3265 16.6782C51.7686 16.6782 48.9223 13.7874 48.9223 10.274C48.8778 6.67157 51.7686 3.78076 55.3265 3.78076ZM76.7185 5.02603H73.9611V6.4492C72.7603 5.55972 71.2927 5.02603 69.6916 5.02603C65.8224 5.02603 62.6647 8.18368 62.6647 12.0529C62.6647 15.9221 65.8224 19.0798 69.6916 19.0798C71.2927 19.0798 72.7603 18.5461 73.9611 17.6566V18.9019H76.7185V5.02603ZM69.6916 16.4114C67.29 16.4114 65.3776 14.4545 65.3776 12.0974C65.3776 9.69579 67.3345 7.78341 69.6916 7.78341C72.0932 7.78341 74.0056 9.74027 74.0056 12.0974C74.05 14.4545 72.0932 16.4114 69.6916 16.4114ZM119.725 5.02603H116.967V6.4492C115.767 5.55972 114.299 5.02603 112.698 5.02603C108.829 5.02603 105.671 8.18368 105.671 12.0529C105.671 15.9221 108.829 19.0798 112.698 19.0798C114.299 19.0798 115.767 18.5461 116.967 17.6566V18.9019H119.725V5.02603ZM112.742 16.4114C110.341 16.4114 108.428 14.4545 108.428 12.0974C108.428 9.69579 110.385 7.78341 112.742 7.78341C115.144 7.78341 117.056 9.74027 117.056 12.0974C117.056 14.4545 115.144 16.4114 112.742 16.4114ZM94.2857 5.02603H97.0431V18.8574H94.2857V5.02603ZM85.5243 5.02603C83.9233 5.02603 82.4556 5.55972 81.2548 6.4492V5.02603H78.4974V22.949H81.2548V17.6566C82.4556 18.5461 83.9233 19.0798 85.5243 19.0798C89.3936 19.0798 92.5512 15.9221 92.5512 12.0529C92.5512 8.18368 89.438 5.02603 85.5243 5.02603ZM85.5243 16.4114C83.1227 16.4114 81.2104 14.4545 81.2104 12.0974C81.2104 9.69579 83.1672 7.78341 85.5243 7.78341C87.9259 7.78341 89.8383 9.74027 89.8383 12.0974C89.8828 14.4545 87.9259 16.4114 85.5243 16.4114ZM121.548 0.9789H124.306V18.9019H121.548V0.9789ZM95.6644 0.000473022C94.7304 0.000473022 93.9744 0.75653 93.9744 1.69048C93.9744 2.62444 94.7304 3.38049 95.6644 3.38049C96.5983 3.38049 97.3544 2.62444 97.3544 1.69048C97.3544 0.75653 96.5983 0.000473022 95.6644 0.000473022ZM103.269 15.2995V7.69447H105.137V5.0705H103.269V0.9789H100.557V5.0705H98.6886V7.69447H100.557V15.7443C100.601 17.4787 102.024 18.9019 103.848 18.9019H105.315V16.4558H104.426C103.67 16.4114 103.269 15.8332 103.269 15.2995Z" fill="#26292F"/>
<path fill-rule="evenodd" clip-rule="evenodd" d="M0 0.622772H3.11318V19.3463H0V0.622772ZM33.311 19.3463H40.1155V8.89493H37.0023V16.2331H33.4889C30.0199 16.2331 27.1736 13.4313 27.1736 10.0068C27.1736 6.53781 29.9754 3.78042 33.4889 3.78042H40.1155V0.667246H33.311C28.1075 0.667246 23.8825 4.8478 23.8825 10.0068C23.8825 15.1658 28.0631 19.3463 33.311 19.3463ZM12.3638 0.622772H5.55924V19.3463H12.3638C17.5672 19.3463 21.7922 15.1658 21.7922 10.0068C21.7922 4.8478 17.5672 0.622772 12.3638 0.622772ZM12.1859 16.2331H8.67242V3.73595H12.1859C15.6548 3.73595 18.5012 6.53781 18.5012 9.9623C18.5012 13.4313 15.6548 16.2331 12.1859 16.2331Z" fill="#DD1600"/>
</g>
<defs>
<clipPath id="clip0_1205_1564">
<rect width="124.305" height="22.9486" fill="white"/>
</clipPath>
</defs>
</svg>
