<svg width="146" height="50" viewBox="0 0 146 50" fill="none" xmlns="http://www.w3.org/2000/svg">
<g clip-path="url(#clip0_2263_1728)">
<g clip-path="url(#clip1_2263_1728)">
<path d="M8.69454 20.3018L11.4075 27.9843H5.98137L8.69454 20.3018ZM7.48137 15.138L0.00390625 34.422H3.6996L4.91049 30.9613H12.4761L13.7161 34.422H17.3826L9.99327 15.1382L7.48137 15.138ZM24.3601 24.5089C25.8624 24.5089 26.9285 25.4534 27.6933 26.5894L30.2102 25.1554C29.0877 23.1041 26.8477 21.7258 24.3601 21.7258C20.7231 21.7258 17.7183 24.6423 17.7183 28.2362C17.7183 31.8306 20.7231 34.7468 24.3601 34.7468C26.8477 34.7468 29.0877 33.3686 30.2102 31.3172L27.6933 29.8858C26.9259 31.0192 25.8624 31.9638 24.3601 31.9638C22.3112 31.9638 20.7525 30.2347 20.7525 28.2362C20.7525 26.2382 22.3112 24.5089 24.3601 24.5089ZM49.194 26.9939C49.6302 25.3737 50.971 24.4023 52.5834 24.4023C54.1961 24.4023 55.4804 25.4003 55.9191 26.9939H49.194ZM52.5811 21.7258C48.9442 21.7258 46.0472 24.6423 46.0472 28.2362C46.0472 31.8306 49.052 34.7468 52.689 34.7468C54.9044 34.7468 56.8429 33.7197 58.0464 32.0729L55.7768 30.3992C54.929 31.3972 54.0269 32.0195 52.6864 32.0195C50.9391 32.0195 49.5715 30.8595 49.1621 29.2899H59.0021C59.0561 29.0478 59.11 28.5899 59.11 28.2362C59.1148 24.642 56.2181 21.7258 52.5811 21.7258ZM37.9571 21.7258C34.3593 21.7258 31.7811 24.6423 31.7811 28.2362V34.4223H34.7831V28.2362C34.7831 26.2382 35.9302 24.5089 37.9593 24.5089C39.9862 24.5089 41.1333 26.238 41.1333 28.2362V34.4223H44.1356V28.2362C44.133 24.642 41.5523 21.7258 37.9571 21.7258ZM144.214 27.7494C143.667 27.3982 142.957 27.1562 142.165 27.018C141.263 26.8559 140.687 26.7491 140.335 26.5046C139.979 26.2623 139.869 25.9377 139.869 25.56C139.869 24.8043 140.496 24.1818 141.425 24.1818C142.354 24.1818 142.9 24.6954 143.148 25.7489L145.827 25.2646C145.474 23.0749 143.94 21.7258 141.455 21.7258C138.913 21.7258 137.082 23.5086 137.082 25.5066C137.082 26.9382 137.602 27.8828 138.423 28.4787C139.023 28.9096 139.79 29.181 140.773 29.3408C141.347 29.423 141.947 29.5322 142.329 29.7187C142.876 29.9899 143.04 30.421 143.04 30.8813C143.04 31.6661 142.356 32.2861 141.427 32.2861C140.499 32.2861 139.815 31.7724 139.759 30.5299H137.026V30.6922C137.026 33.5575 139.32 34.7443 141.425 34.7443C143.557 34.7443 145.824 33.3129 145.824 30.881C145.827 29.4787 145.253 28.4253 144.214 27.7494ZM119.812 16.5866H116.78V19.7739H119.812V16.5866ZM119.814 22.0481H116.78V34.4197H119.814V22.0481ZM82.6302 17.1339H79.5963V22.0504H78.2849V24.8334H79.5963V30.6415C79.5963 33.2089 81.4834 34.7468 84.0788 34.7468C84.4072 34.7468 84.7624 34.7203 85.0077 34.6668V31.9641H84.7624C83.4219 31.9641 82.6302 31.3706 82.6302 29.9392V24.8334H85.0077V22.0506H82.6302V17.1339ZM74.6725 24.4C73.7168 23.7797 72.6507 23.562 71.6948 23.3729C70.8199 23.2084 69.9181 23.1018 69.0971 22.5615C68.4966 22.157 68.1143 21.5081 68.1143 20.6433C68.1143 19.1851 69.3983 17.9694 70.9302 17.9694C73.609 17.9694 73.854 20.779 73.854 20.779L77.0254 20.2387C76.8611 18.643 75.6307 15 70.9302 15C67.5406 15 64.8619 17.5382 64.8619 20.6456C64.8619 22.8354 65.955 24.6177 67.8396 25.4803C69.07 26.0468 69.972 26.1559 70.8199 26.3448C71.7487 26.5628 72.3761 26.6694 72.8687 27.0739C73.4421 27.5339 73.7437 28.2605 73.7437 28.9653C73.7437 30.4767 72.4864 31.6392 70.9277 31.6392C70.2171 31.6392 68.1657 31.3147 68.1657 28.5851H64.8864C64.8864 33.6909 69.369 34.6089 70.9277 34.6089C74.2902 34.6089 77.0497 32.0972 77.0497 28.963C77.0497 26.9939 76.2019 25.4003 74.6725 24.4ZM128.686 31.9638C126.637 31.9638 125.076 30.2347 125.076 28.2362C125.076 26.2382 126.635 24.5089 128.686 24.5089C130.735 24.5089 132.293 26.238 132.293 28.2362C132.296 30.2344 130.735 31.9638 128.686 31.9638ZM128.686 21.7258C125.049 21.7258 122.044 24.6423 122.044 28.2362C122.044 31.8306 125.051 34.7468 128.686 34.7468C132.32 34.7468 135.327 31.8306 135.327 28.2362C135.327 24.642 132.323 21.7258 128.686 21.7258ZM96.7495 28.2367C96.7495 30.2349 95.4677 31.9641 93.5168 31.9641H93.4556C91.5072 31.9641 90.2229 30.2349 90.2229 28.2367V22.0506H87.3383V28.2365C87.3383 31.8284 89.9976 34.7468 93.4556 34.7468H93.5168C96.9751 34.7468 99.634 31.8306 99.634 28.2365V22.0506H96.7495V28.2367ZM107.785 31.9739C105.785 31.9739 104.163 30.3005 104.163 28.2367C104.163 26.1734 105.785 24.4995 107.785 24.4995C109.785 24.4995 111.408 26.1732 111.408 28.2367C111.408 30.3003 109.785 31.9739 107.785 31.9739ZM111.393 22.9906C109.935 21.6972 107.785 21.7263 107.785 21.7263C104.151 21.7263 101.122 24.6425 101.122 28.2367C101.122 31.8286 104.151 34.7471 107.785 34.7471C111.535 34.7471 114.427 31.9739 114.427 28.2392V15.1263H111.393V22.9906Z" fill="#26292F"/>
</g>
</g>
<defs>
<clipPath id="clip0_2263_1728">
<rect width="145.833" height="50" fill="white"/>
</clipPath>
<clipPath id="clip1_2263_1728">
<rect width="145.823" height="20" fill="white" transform="translate(0.00195312 15)"/>
</clipPath>
</defs>
</svg>
