<svg width="120" height="50" viewBox="0 0 120 50" fill="none" xmlns="http://www.w3.org/2000/svg">
<g clip-path="url(#clip0_2263_1873)">
<path d="M28.6994 16.7474L28.037 15.5841C27.985 15.4929 27.9127 15.415 27.8256 15.3564C27.7386 15.2977 27.6392 15.26 27.5352 15.2462C27.4311 15.2323 27.3253 15.2427 27.226 15.2765C27.1266 15.3103 27.0364 15.3666 26.9624 15.441L25.4387 16.9634C25.3273 17.0753 25.258 17.2223 25.2426 17.3795C25.2271 17.5367 25.2665 17.6944 25.3539 17.8259C25.9095 18.6749 26.3547 19.5912 26.6789 20.5526C27.2845 22.35 27.4536 24.2656 27.1722 26.1412C26.8909 28.0169 26.1672 29.7986 25.061 31.3392C23.9547 32.8797 22.4977 34.1349 20.8104 35.0009C19.123 35.8669 17.2538 36.3189 15.3572 36.3195C13.4048 36.3249 11.4813 35.8474 9.75797 34.9296L12.335 32.3513C13.9319 32.9553 15.6732 33.0664 17.3339 32.6703C18.9946 32.2743 20.4983 31.3892 21.6507 30.1295C22.8031 28.8698 23.5512 27.2935 23.7982 25.6042C24.0453 23.9148 23.78 22.1903 23.0366 20.6533C22.9894 20.5549 22.9193 20.4693 22.8321 20.4035C22.745 20.3378 22.6434 20.294 22.5358 20.2757C22.4282 20.2574 22.3177 20.2652 22.2138 20.2984C22.1098 20.3316 22.0153 20.3892 21.9382 20.4665L20.396 21.9982C20.3138 22.0803 20.2539 22.1821 20.2221 22.2938C20.1904 22.4056 20.1877 22.5237 20.2145 22.6368L20.347 23.1906C20.575 24.1608 20.5148 25.1764 20.1738 26.1128C19.8328 27.0492 19.2258 27.8657 18.4274 28.4621C17.629 29.0585 16.6738 29.4089 15.6791 29.4701C14.6844 29.5314 13.6935 29.301 12.8279 28.8071L12.1482 28.4175C12.0183 28.3427 11.8673 28.3129 11.7187 28.3328C11.5702 28.3527 11.4323 28.4212 11.3267 28.5275L5.03188 34.821C4.96317 34.8897 4.90992 34.9723 4.87571 35.0633C4.8415 35.1542 4.82711 35.2514 4.83351 35.3484C4.83991 35.4454 4.86695 35.5399 4.91281 35.6255C4.95867 35.7112 5.02231 35.7861 5.09945 35.8452L6.02692 36.5567C8.70158 38.6178 11.9858 39.7309 15.3625 39.7207C18.0508 39.7172 20.6912 39.0087 23.0201 37.6658C25.349 36.3229 27.285 34.3927 28.6347 32.0678C29.9844 29.7428 30.7007 27.1045 30.7121 24.4162C30.7234 21.7279 30.0295 19.0836 28.6994 16.7474Z" fill="url(#paint0_linear_2263_1873)"/>
<path d="M24.6969 12.1659C22.0226 10.104 18.7383 8.99038 15.3614 9.00056C12.6717 9.00265 10.0297 9.71052 7.69937 11.0535C5.36899 12.3964 3.43184 14.3274 2.08145 16.6534C0.731063 18.9795 0.0147314 21.6192 0.00402798 24.3088C-0.00667547 26.9984 0.688624 29.6437 2.02045 31.9805L2.68293 33.1424C2.7351 33.2335 2.80755 33.3114 2.89465 33.3699C2.98176 33.4285 3.08118 33.4663 3.18521 33.4802C3.28924 33.4942 3.3951 33.484 3.49456 33.4505C3.59403 33.4169 3.68444 33.361 3.75879 33.2869L5.27983 31.7658C5.39046 31.6537 5.45925 31.507 5.47469 31.3502C5.49012 31.1935 5.45127 31.0362 5.36463 30.9046C4.80853 30.0559 4.36326 29.1395 4.03968 28.1779C3.43411 26.3805 3.265 24.4649 3.54633 22.5893C3.82767 20.7136 4.55136 18.9319 5.65759 17.3913C6.76383 15.8508 8.22083 14.5956 9.90818 13.7296C11.5955 12.8636 13.4648 12.4116 15.3614 12.411C17.3138 12.4066 19.2369 12.8854 20.9593 13.8048L18.3809 16.3818C17.0893 15.8923 15.6982 15.7237 14.327 15.8905C12.9559 16.0574 11.6458 16.5546 10.5092 17.3395C9.37267 18.1245 8.4437 19.1736 7.80215 20.3968C7.16059 21.6201 6.82563 22.9808 6.82604 24.362C6.82604 24.5038 6.86447 25.1504 6.87639 25.2616C6.98088 26.2402 7.25292 27.1935 7.68063 28.0798C7.72799 28.1782 7.79825 28.2639 7.88551 28.3296C7.97278 28.3953 8.07452 28.4391 8.18221 28.4574C8.2899 28.4757 8.4004 28.4679 8.50447 28.4347C8.60854 28.4016 8.70313 28.3439 8.78034 28.2666L10.3226 26.7231C10.4047 26.6411 10.4646 26.5396 10.4966 26.4281C10.5286 26.3166 10.5316 26.1988 10.5054 26.0858L10.3729 25.5306C10.1446 24.5604 10.2046 23.5447 10.5456 22.6082C10.8865 21.6716 11.4935 20.855 12.2921 20.2587C13.0907 19.6623 14.046 19.3121 15.0408 19.2512C16.0356 19.1902 17.0266 19.4211 17.892 19.9155L18.5717 20.305C18.7018 20.3792 18.8526 20.4086 19.001 20.3887C19.1494 20.3688 19.2872 20.3008 19.3932 20.195L25.6867 13.9015C25.7555 13.8328 25.8089 13.7502 25.8432 13.6592C25.8775 13.5681 25.892 13.4709 25.8858 13.3738C25.8795 13.2767 25.8526 13.1821 25.8068 13.0963C25.7611 13.0104 25.6975 12.9354 25.6204 12.876L24.6969 12.1659Z" fill="url(#paint1_linear_2263_1873)"/>
<path d="M50.5643 28.5978C50.4495 28.5046 50.3052 28.4553 50.1574 28.4587C50.0096 28.4621 49.8678 28.518 49.7574 28.6164C48.7703 29.3822 47.6255 30.0911 45.9521 30.0911C42.8888 30.0911 40.3966 27.5114 40.3966 24.3381C40.3966 21.1649 42.8796 18.5627 45.9296 18.5627C47.2545 18.5627 48.6855 19.1205 49.7375 20.044C49.7968 20.1128 49.8705 20.1677 49.9534 20.2047C50.0363 20.2418 50.1263 20.2602 50.2171 20.2586C50.2958 20.2524 50.3722 20.229 50.4408 20.1901C50.5095 20.1511 50.5688 20.0977 50.6146 20.0334L51.611 19.0079C51.6744 18.9465 51.7244 18.8727 51.7579 18.7911C51.7914 18.7094 51.8077 18.6218 51.8057 18.5335C51.802 18.4439 51.7798 18.356 51.7406 18.2753C51.7014 18.1946 51.646 18.1228 51.5778 18.0645C49.8382 16.5488 48.0906 15.873 45.9057 15.873C41.2419 15.873 37.4473 19.6915 37.4473 24.3845C37.449 26.6279 38.3405 28.779 39.9262 30.366C41.5119 31.9529 43.6623 32.8461 45.9057 32.8496C46.9596 32.8621 48.0055 32.666 48.9833 32.2726C49.9611 31.8792 50.8514 31.2963 51.603 30.5575C51.669 30.4902 51.7208 30.4104 51.7554 30.3228C51.7899 30.2352 51.8066 30.1415 51.8044 30.0473C51.8026 29.9724 51.7858 29.8985 51.7548 29.8302C51.7238 29.762 51.6794 29.7006 51.6242 29.6499L50.5643 28.5978Z" fill="#3D3652"/>
<path d="M57.819 16.1025H56.3099C56.1415 16.1082 55.9816 16.1778 55.8627 16.2972C55.7438 16.4165 55.6749 16.5767 55.6699 16.7451V31.982C55.6746 32.1507 55.7433 32.3112 55.8623 32.4309C55.9812 32.5505 56.1413 32.6203 56.3099 32.626H57.819C57.9876 32.6203 58.1477 32.5505 58.2666 32.4309C58.3855 32.3112 58.4543 32.1507 58.4589 31.982V16.7451C58.454 16.5767 58.385 16.4165 58.2662 16.2972C58.1473 16.1778 57.9874 16.1082 57.819 16.1025Z" fill="#3D3652"/>
<path d="M75.68 21.2314C75.68 18.404 73.3521 16.1025 70.4902 16.1025H64.2669C64.0969 16.1032 63.9342 16.1713 63.8142 16.2917C63.6943 16.4121 63.627 16.5752 63.627 16.7451V31.982C63.6266 32.1522 63.6938 32.3156 63.8138 32.4364C63.9337 32.5571 64.0967 32.6253 64.2669 32.626H65.7535C65.9221 32.6203 66.0822 32.5505 66.2011 32.4309C66.32 32.3112 66.3888 32.1507 66.3934 31.982V26.3152H69.5124L72.5001 32.2974C72.5545 32.3954 72.6342 32.477 72.731 32.5336C72.8277 32.5903 72.9379 32.6199 73.05 32.6193H74.8334C74.946 32.6231 75.0577 32.597 75.157 32.5437C75.2564 32.4904 75.3399 32.4119 75.3991 32.3159C75.4555 32.2146 75.4851 32.1006 75.4851 31.9847C75.4851 31.8688 75.4555 31.7548 75.3991 31.6535L72.3676 26.0039C74.416 25.0936 75.68 23.2838 75.68 21.2314ZM72.891 21.2778C72.891 22.7127 71.7078 23.9277 70.3073 23.9277H66.4398V18.7458H70.302C71.7052 18.7458 72.8857 19.9051 72.8857 21.2778H72.891Z" fill="#3D3652"/>
<path d="M91.9235 28.5978C91.8087 28.5046 91.6645 28.4553 91.5166 28.4587C91.3688 28.4621 91.227 28.518 91.1166 28.6164C90.1295 29.3822 88.9848 30.0911 87.3113 30.0911C84.2481 30.0911 81.7558 27.5114 81.7558 24.3381C81.7558 21.1649 84.2375 18.5627 87.2875 18.5627C88.6124 18.5627 90.0434 19.1205 91.0967 20.044C91.1563 20.1134 91.2307 20.1687 91.3143 20.2059C91.398 20.243 91.4888 20.261 91.5803 20.2586C91.659 20.2524 91.7354 20.229 91.804 20.1901C91.8727 20.1511 91.932 20.0977 91.9778 20.0334L92.9742 19.0079C93.0374 18.9464 93.0872 18.8726 93.1205 18.791C93.1538 18.7093 93.1699 18.6217 93.1676 18.5335C93.1644 18.4439 93.1427 18.3559 93.1037 18.2752C93.0646 18.1945 93.0093 18.1227 92.9411 18.0645C91.2054 16.5488 89.4578 15.873 87.2729 15.873C82.6091 15.873 78.8145 19.6915 78.8145 24.3845C78.8162 26.6279 79.7077 28.779 81.2934 30.366C82.8791 31.9529 85.0295 32.8461 87.2729 32.8496C88.3268 32.8619 89.3727 32.6658 90.3504 32.2724C91.3282 31.879 92.2185 31.2962 92.9702 30.5574C93.0362 30.49 93.0881 30.41 93.1227 30.3221C93.1573 30.2343 93.1739 30.1404 93.1716 30.046C93.1699 29.971 93.153 29.8972 93.1221 29.8289C93.0911 29.7606 93.0467 29.6992 92.9914 29.6485L91.9235 28.5978Z" fill="#3D3652"/>
<path d="M105.799 30.0675H99.8105V16.7451C99.8055 16.5767 99.7366 16.4165 99.6177 16.2972C99.4988 16.1778 99.3389 16.1082 99.1706 16.1025H97.6614C97.4915 16.1032 97.3287 16.1713 97.2088 16.2917C97.0888 16.4121 97.0215 16.5752 97.0215 16.7451V31.982C97.0211 32.1522 97.0883 32.3156 97.2083 32.4364C97.3283 32.5571 97.4912 32.6253 97.6614 32.626H105.799C105.884 32.6258 105.967 32.609 106.045 32.5765C106.123 32.5441 106.194 32.4966 106.253 32.4368C106.313 32.377 106.36 32.3061 106.392 32.2281C106.424 32.15 106.441 32.0664 106.441 31.982V30.7167C106.441 30.6319 106.425 30.5477 106.394 30.4691C106.362 30.3904 106.315 30.3189 106.255 30.2585C106.196 30.1982 106.125 30.1502 106.046 30.1174C105.968 30.0846 105.884 30.0677 105.799 30.0675Z" fill="#3D3652"/>
<path d="M119.36 18.6842C119.53 18.6835 119.693 18.6155 119.813 18.4951C119.933 18.3747 120 18.2116 120 18.0416V16.7525C120 16.5825 119.933 16.4194 119.813 16.299C119.693 16.1786 119.53 16.1106 119.36 16.1099H110.218C110.048 16.1106 109.885 16.1786 109.765 16.299C109.645 16.4194 109.578 16.5825 109.578 16.7525V31.9894C109.578 32.1596 109.645 32.323 109.765 32.4437C109.885 32.5644 110.048 32.6326 110.218 32.6333H119.36C119.53 32.6326 119.693 32.5644 119.813 32.4437C119.933 32.323 120.001 32.1596 120 31.9894V30.724C120 30.5541 119.933 30.391 119.813 30.2706C119.693 30.1502 119.53 30.0821 119.36 30.0814H112.338V25.5355H118.235C118.406 25.5352 118.569 25.4673 118.689 25.3469C118.809 25.2264 118.877 25.0631 118.877 24.8929V23.6051C118.872 23.4362 118.803 23.2755 118.684 23.1558C118.565 23.0361 118.404 22.9665 118.235 22.9612H112.342V18.6842H119.36Z" fill="#3D3652"/>
</g>
<defs>
<linearGradient id="paint0_linear_2263_1873" x1="9.94214" y1="40.7038" x2="31.5653" y2="19.0806" gradientUnits="userSpaceOnUse">
<stop stop-color="#B090F5"/>
<stop offset="1" stop-color="#5FBFFF"/>
</linearGradient>
<linearGradient id="paint1_linear_2263_1873" x1="-0.845408" y1="29.6459" x2="20.7791" y2="8.02275" gradientUnits="userSpaceOnUse">
<stop stop-color="#68D7FA"/>
<stop offset="1" stop-color="#4EE498"/>
</linearGradient>
<clipPath id="clip0_2263_1873">
<rect width="120" height="50" fill="white"/>
</clipPath>
</defs>
</svg>
