<svg width="173" height="50" viewBox="0 0 173 50" fill="none" xmlns="http://www.w3.org/2000/svg">
<g clip-path="url(#clip0_2263_1973)">
<g clip-path="url(#clip1_2263_1973)">
<mask id="mask0_2263_1973" style="mask-type:luminance" maskUnits="userSpaceOnUse" x="0" y="15" width="105" height="20">
<path d="M104.833 15H0V34.8455H104.833V15Z" fill="white"/>
</mask>
<g mask="url(#mask0_2263_1973)">
<path d="M3.68004 15C3.87049 15 4.0428 15.0778 4.16775 15.203C4.29271 15.3283 4.3703 15.501 4.3703 15.6919V33.7455C4.3703 33.9364 4.29271 34.1091 4.16775 34.2343C4.0428 34.3596 3.87049 34.4374 3.68004 34.4374H0.690259C0.507869 34.4374 0.341603 34.3657 0.217658 34.2495C0.0836372 34.1232 0 33.9444 0 33.7455V15.6919C0 15.502 0.0765835 15.3303 0.19952 15.2051C0.322457 15.0798 0.497793 15 0.690259 15H3.68004Z" fill="black"/>
<path d="M87.6991 22.8806C86.8698 22.3392 84.9754 21.9452 83.6382 21.918C82.1428 21.8887 80.3541 22.419 80.3541 22.419C80.3541 22.419 80.3642 21.3806 80.4025 20.3867C80.462 18.7432 82.8532 18.3786 84.0755 18.3907C85.3119 18.4028 86.7035 18.7624 87.5359 19.0159C87.9228 19.1351 88.3138 18.8654 88.347 18.4614L88.5113 16.4442C88.5284 16.1705 88.3732 15.9099 88.1153 15.8058C86.898 15.318 85.4046 15.0725 83.8075 15.0564C82.9449 15.0483 81.3638 14.9452 79.7606 15.6069C78.5766 16.0998 76.6943 17.3351 76.6721 19.5988C76.6499 21.8048 76.6358 23.3038 76.6157 25.2786C76.5905 27.7867 76.5955 27.2968 76.5764 29.3008C76.5653 30.4109 77.0338 32.5058 78.2894 33.4695C79.9027 34.7109 81.3971 34.8271 82.8925 34.8412C84.5179 34.8574 85.6394 34.8392 87.0129 34.118C88.7622 33.1978 89.4988 31.4038 89.5613 29.4725C89.6167 28.1897 89.5794 27.6271 89.518 26.5745C89.4706 25.5796 89.6288 24.1392 87.6991 22.8806ZM85.3643 30.6422C84.8837 31.2715 83.7893 31.4048 82.955 31.3968C82.1065 31.3887 81.2883 31.2644 80.7482 30.5968C80.1939 29.9422 80.3017 29.1654 80.3128 28.1271C80.3259 26.8442 80.333 26.0513 80.333 26.0513C80.333 26.0513 81.7629 25.4452 83.1001 25.5018C83.8911 25.5382 84.7819 25.5473 85.323 26.1584C85.8641 26.7553 85.9014 27.2745 85.8903 28.3988C85.8802 29.4079 85.8601 30.0129 85.3643 30.6422Z" fill="black"/>
<path d="M74.3779 27.5782C74.387 26.656 73.9144 24.9933 72.2799 24.4428C71.8789 24.3095 71.6491 24.2347 71.4627 24.2327C71.9242 24.064 72.3727 23.8236 72.9823 23.2529C73.5778 22.6822 73.8741 21.7772 73.8852 20.6378C73.8932 19.8307 73.8882 20.3499 73.8942 19.7004C73.9104 18.0711 73.205 16.6519 71.7892 15.859C70.6737 15.2428 69.137 15.0257 67.7414 15.0115C64.8937 14.9832 62.9015 15.7418 62.0621 16.2378C61.8596 16.365 61.7427 16.5802 61.7548 16.8257L61.8928 18.86C61.917 19.2923 62.3604 19.5711 62.7644 19.4024C63.7177 19.0085 65.3481 18.4337 66.902 18.4196C67.6497 18.4125 68.7279 18.4519 69.272 18.6883C69.8877 18.9398 70.2706 19.4772 70.2656 20.0388C70.2737 20.659 70.2747 20.558 70.2706 20.9469C70.2626 21.7974 69.9583 21.9964 69.6822 22.2388C69.2902 22.5812 68.5707 22.6752 67.7061 22.7671C67.1589 22.8337 65.8348 22.9075 64.6982 22.9246C64.3525 22.9358 64.0764 23.2065 64.0734 23.5529L64.0392 25.5994C64.0361 25.9459 64.3062 26.2368 64.6659 26.2398C65.6585 26.2499 67.0098 26.2923 68.0155 26.4024C69.3799 26.56 70.5558 26.9469 70.5447 28.0853C70.5336 29.2095 70.5498 27.5802 70.5326 29.2671C70.5155 30.9539 69.0463 31.1842 66.8607 31.162C65.4368 31.1479 63.8034 30.5115 62.8441 30.0701C62.443 29.8933 61.9805 30.162 61.9472 30.5943L61.7679 32.7691C61.7507 32.9994 61.8636 33.2317 62.05 33.363C62.7503 33.8166 64.5813 34.8156 67.17 34.8408C69.0252 34.859 71.3589 34.464 72.5903 33.5822C73.0246 33.2691 74.3316 32.057 74.3497 30.2115C74.3588 29.2893 74.3517 30.0236 74.3628 28.856C74.3739 27.7459 74.3679 28.3802 74.3759 27.5731L74.3779 27.5782Z" fill="black"/>
<path d="M57.8273 20.0836C56.5828 19.422 55.1479 19.0906 53.5366 19.0755C51.2935 19.0533 49.1189 19.3199 47.8331 19.927C47.6024 20.0401 47.4553 20.2836 47.4674 20.5432L47.5611 22.6775C47.5853 23.1098 48.0145 23.4028 48.4186 23.2624C49.4726 22.8694 51.3187 22.3543 53.0731 22.3422C54.2521 22.3391 54.8557 22.4603 55.2698 22.6957C55.685 22.93 55.8543 23.1917 55.8482 23.7967C55.8432 24.3018 55.8351 25.123 55.8351 25.123C55.8351 25.123 53.7946 24.9583 52.802 25.0068C51.4497 25.0795 50.1679 25.226 48.7511 25.9321C47.5802 26.5119 46.637 27.3533 46.6189 29.1694C46.6108 29.9906 46.6088 30.222 46.5998 31.0866C46.5877 32.3553 47.3535 33.3725 48.4126 33.9159C49.5714 34.5038 50.8773 34.8199 53.2938 34.8442C56.6009 34.8775 58.6717 33.5139 59.3388 32.9866C59.498 32.8725 59.5867 32.6866 59.5887 32.4846L59.6754 23.7341C59.6784 21.9462 59.0718 20.729 57.8273 20.0826V20.0836ZM55.1892 30.8846C54.4798 31.3674 53.4147 31.4432 52.5803 31.4502C51.7318 31.4563 50.7413 31.2442 50.3715 30.8371C50.044 30.4876 50.175 30.3886 50.18 29.8836C50.1871 29.1482 50.5095 28.5896 51.2603 28.3088C52.011 28.0139 53.0892 28.024 53.7653 28.0169C54.9877 27.9997 55.8492 28.1674 55.8492 28.1674L55.8422 28.83C55.8291 30.127 55.8986 30.4018 55.1892 30.8856V30.8846Z" fill="black"/>
<path d="M30.8099 25.3214C28.9709 25.0871 27.2629 24.7669 26.7913 24.4881C26.3197 24.1951 26.3872 23.2154 26.6774 22.8719C27.0997 22.3861 28.9679 22.5053 30.0451 22.6315C31.4095 22.7891 32.4857 23.0739 33.1598 23.2972C33.5609 23.4305 33.967 23.1608 34.0143 22.7436L34.2653 20.6699C34.2975 20.3679 34.1272 20.077 33.841 19.9739C32.3507 19.4255 31.2322 19.0972 28.8016 19.0729C27.7375 19.0628 26.5142 19.1659 25.4027 19.5578C23.6272 20.1749 23.1123 21.4093 22.9863 22.5032C22.9238 23.0507 22.8775 23.3234 22.8704 24.0305C22.8584 25.2123 23.0941 26.1669 23.7491 26.7931C24.4041 27.4335 25.8522 27.9386 28.064 28.2628C30.032 28.5416 30.4895 28.777 30.8321 29.0255C31.3037 29.376 31.2483 30.5578 30.9288 30.8285C30.4069 31.2699 29.1976 31.3588 27.7315 31.2436C26.2653 31.1285 24.7165 30.6659 23.7995 30.3537C23.3844 30.2052 22.95 30.4891 22.9168 30.9214L22.7515 33.0679C22.7344 33.3275 22.8614 33.5739 23.0901 33.6911C24.2489 34.3224 26.7893 34.8234 28.7885 34.8436C30.9893 34.8659 32.7185 34.4356 33.6758 33.6234C34.7631 32.7113 34.9041 31.5598 34.9192 30.0608C34.9303 28.9224 34.9585 27.5234 34.233 26.7527C33.5206 26.0396 32.7628 25.5699 30.8099 25.3204V25.3214Z" fill="black"/>
<path d="M44.0368 30.9659C42.875 31.385 42.1243 31.385 41.6446 30.9356C41.4884 30.7749 41.4189 30.5154 41.4249 29.8952L41.5056 23.2527L43.922 23.277C44.2958 23.281 44.6011 22.981 44.6042 22.6063L44.6404 20.3861C44.6445 20.0255 44.3593 19.7204 43.9855 19.7164L41.5106 19.6921L41.5086 16.8416C41.5126 16.481 41.2133 16.176 40.8536 16.1719L37.9495 16.1426C37.5897 16.1386 37.2854 16.4386 37.2773 17.1739L37.3388 30.9921C37.3328 31.5689 37.2048 32.879 38.1742 33.7396C39.1436 34.6002 40.4928 34.8881 41.8582 34.8416C42.9385 34.8053 43.6701 34.7083 44.3472 34.4729C44.6535 34.3659 44.8974 34.1325 44.8863 33.8002L44.8077 31.6083C44.7825 31.2042 44.4087 30.8325 44.0379 30.9659H44.0368Z" fill="black"/>
<path d="M16.1895 33.7275C16.1855 34.0881 16.4706 34.4225 16.8445 34.4265L19.7285 34.4215C20.0882 34.4255 20.3935 34.1114 20.3966 33.7356" fill="black"/>
<path d="M19.1731 20.7301C18.243 19.9129 16.9028 19.5695 15.76 19.3068C14.8461 19.0967 12.2443 19.1139 11.027 19.4473C8.88366 20.0341 7.77824 20.7412 7.37214 21.1119C7.24114 21.2402 7.15348 21.4129 7.15146 21.5998L7.14844 33.7109C7.14844 34.0927 7.45679 34.4028 7.8387 34.4028H10.6592C11.0401 34.4028 11.3494 34.0937 11.3494 33.7109C11.3494 33.7109 11.3424 24.42 11.3424 24.0634C11.3424 23.025 12.5929 22.7341 13.916 22.7341C14.9237 22.7341 16.1893 23.025 16.1893 24.1119C16.1893 24.4776 16.1843 33.722 16.1843 33.722C16.1843 34.1038 16.4936 34.4139 16.8745 34.4139H19.7142C20.0951 34.4139 20.4044 34.1048 20.4044 33.722C20.4044 33.722 20.4185 24.2149 20.4185 23.617C20.4185 21.9856 20.0245 21.4755 19.1761 20.7301H19.1731Z" fill="black"/>
<path d="M104.833 20.9198C104.86 18.0946 103.881 16.9885 102.925 16.3158C101.777 15.4986 99.9265 15.032 98.3101 15.0107C96.6979 15.0309 94.9455 15.4986 93.7968 16.3158C92.8415 16.9885 91.862 18.0946 91.8892 20.9198C91.9043 22.4643 91.9043 27.4006 91.8892 28.937C91.862 31.7623 92.8415 32.8683 93.7968 33.541C94.9455 34.3582 96.7956 34.8249 98.4119 34.8461C100.024 34.8259 101.777 34.3582 102.925 33.541C103.881 32.8683 104.86 31.7623 104.833 28.937C104.818 27.3996 104.818 22.4633 104.833 20.9198ZM100.436 30.8653C100.008 31.2683 99.0397 31.4602 98.3615 31.4713C97.6834 31.4602 96.715 31.2673 96.2857 30.8653C95.8091 30.4138 95.7708 29.9956 95.7869 28.3663C95.795 27.5128 95.795 22.334 95.7869 21.4895C95.7708 19.8602 95.8091 19.442 96.2857 18.9905C96.714 18.5875 97.6824 18.3956 98.3605 18.3845C99.0387 18.3956 100.007 18.5885 100.436 18.9905C100.913 19.442 100.951 19.8602 100.935 21.4895C100.927 22.333 100.927 27.5128 100.935 28.3663C100.951 29.9956 100.913 30.4138 100.436 30.8653Z" fill="black"/>
</g>
</g>
</g>
<defs>
<clipPath id="clip0_2263_1973">
<rect width="173" height="50" fill="white"/>
</clipPath>
<clipPath id="clip1_2263_1973">
<rect width="105" height="20" fill="white" transform="translate(0 15)"/>
</clipPath>
</defs>
</svg>
