<svg width="173" height="50" viewBox="0 0 173 50" fill="none" xmlns="http://www.w3.org/2000/svg">
<g clip-path="url(#clip0_2263_2027)">
<g clip-path="url(#clip1_2263_2027)">
<path d="M6.89422 21.4456V18.7699H13.6061V17.0911H7.06601C7.44973 16.1376 8.38566 15.3818 8.9979 14.9654C9.46639 14.647 9.93712 14.3945 10.375 14.1966V16.3836H12.0917V12.0049C10.4475 12.0049 5.91556 14.0084 5.25747 17.1698C2.02791 17.8115 0 22.2303 0 23.8384L12.0949 23.8368V19.479H10.375V22.1531H2.22928C2.42806 21.7335 2.68704 21.2783 3.00501 20.8281C3.42817 20.2299 4.2039 19.3133 5.17599 18.9402V21.4456H6.89422Z" fill="black"/>
<path d="M16.8568 18.7456H19.5875V25.3127H21.3057V18.9145C22.2802 19.2908 23.0527 20.2042 23.4767 20.8039C23.8021 21.2621 24.0626 21.7237 24.2647 22.1514H22.028V23.8301H26.5032C26.5032 22.222 24.4579 17.7872 21.2253 17.1456C20.5686 13.9843 16.054 12 14.4082 12L14.4115 23.8333H18.8661V22.1513H16.1328V14.1821C16.5602 14.3765 17.0245 14.6291 17.4879 14.9411C18.0969 15.3559 19.0344 16.1149 19.4166 17.0652H16.8568V18.7456Z" fill="black"/>
<path d="M19.6835 28.5592V31.2335H12.9727V32.9153H19.5103C19.1283 33.8658 18.1931 34.6262 17.5819 35.0395C17.1143 35.3582 16.6392 35.6122 16.2055 35.8099V33.6215H14.4873V38C16.1332 38 20.6634 35.9962 21.3215 32.8349C24.5526 32.1936 26.5789 27.7746 26.5789 26.165L14.4855 26.1684V30.5275H16.2055V27.8533H24.3503C24.149 28.273 23.8943 28.7264 23.5731 29.1752C23.1508 29.7749 22.3766 30.6917 21.4004 31.0679V28.5594L19.6835 28.5592Z" fill="black"/>
<path d="M9.65372 31.2432H6.92067V24.6777H5.20416V31.076C4.22965 30.6997 3.45548 29.7829 3.03146 29.1832C2.70847 28.7282 2.4481 28.2651 2.24586 27.8405H4.48102V26.1583H0.00585938C0.00585938 27.7664 2.05349 32.2014 5.28374 32.8462C5.93959 36.0058 10.4564 37.9905 12.1024 37.9905L12.0991 26.1555H7.64294V27.8405H10.3776V35.8065C9.94869 35.6122 9.48349 35.3595 9.02418 35.0494C8.41037 34.6328 7.476 33.877 7.09229 32.9252H9.65372V31.2432Z" fill="black"/>
<path d="M38.769 19.2568H36.1387V30.7782H47.2171V28.7216H38.769V19.2568Z" fill="black"/>
<path d="M50.8513 19.2568H50.7891V30.7782H61.8675V28.7216H53.4194V25.7871H59.0908V23.8911H53.4194V21.3119H61.8675V19.2568H50.8513Z" fill="black"/>
<path d="M107.043 27.3407L99.4222 19.3684V19.251H97.0195V30.7742H99.4222V22.8063L107.043 30.7742H109.444V19.251H107.043V27.3407Z" fill="black"/>
<path d="M81.9843 19.2568H81.9219V30.7782H92.9996V28.7216H84.5522V25.7871H90.1892V23.8911H84.5522V21.3119H92.9996V19.2568H81.9843Z" fill="black"/>
<path d="M71.5335 26.6004H75.5106L75.527 28.2758V28.3466C75.0506 28.5072 74.5427 28.66 73.8649 28.7951C73.1862 28.9332 72.4572 28.9945 71.6091 28.9945C71.061 28.9945 70.5088 28.9255 69.9649 28.7711C69.4217 28.6213 68.9854 28.4124 68.5615 28.0923C68.1406 27.771 67.8211 27.3607 67.5639 26.8463C67.3009 26.3302 67.1769 25.719 67.1769 25.0052C67.1769 24.28 67.2845 23.7204 67.545 23.2138C67.8047 22.7056 68.1597 22.2987 68.5852 21.9788C69.0075 21.6604 69.4399 21.4546 69.9838 21.3002C70.5237 21.149 71.0538 21.0945 71.6043 21.0945C72.0489 21.0945 72.4926 21.0864 72.9898 21.146C73.4877 21.2039 73.9726 21.2987 74.3934 21.4337C75.8789 21.9097 76.2357 22.2378 76.4042 22.3085L77.4543 20.3001L76.2126 19.8514C75.9078 19.7581 75.5241 19.6537 75.0631 19.5491C74.6037 19.4381 74.0737 19.3384 73.4779 19.25C72.8838 19.1664 72.2592 19.123 71.601 19.123C70.5625 19.123 69.6149 19.2566 68.7586 19.5234C67.9055 19.795 67.1734 20.1812 66.5605 20.6844C65.9532 21.1958 65.484 21.8085 65.147 22.5255C64.8102 23.2459 64.6426 24.0644 64.6426 24.9762C64.6426 25.8928 64.8102 26.7065 65.147 27.4269C65.4799 28.1424 65.9532 28.7536 66.5605 29.2535C67.1701 29.7537 67.904 30.1317 68.7586 30.3856C69.6132 30.6364 70.5606 30.7668 71.601 30.7668C72.1376 30.7668 72.6831 30.7522 73.2421 30.7234C73.7974 30.6926 74.3562 30.6173 74.915 30.4949C75.4681 30.371 76.0203 30.199 76.5626 29.9837C76.9455 29.8307 77.316 29.6924 77.6728 29.4802V24.994H71.5337L71.5335 26.6004Z" fill="black"/>
<path d="M135.756 26.3457H133.524L135.398 22.4623L137.291 26.3457H135.756ZM134.425 19.3877L128.863 30.7724H131.386L132.724 28.0017H138.099L139.45 30.7724H142.287L136.413 19.3877H134.425Z" fill="black"/>
<path d="M169.917 19.3711L166.425 23.983L163.151 19.3711H160.066L164.875 26.1908V30.7704H167.927V26.3291L173 19.3711H169.917Z" fill="black"/>
<path d="M147.901 24.4409V21.384H152.568V21.3729C152.754 21.3744 152.922 21.389 153.075 21.4211C153.433 21.5047 153.673 21.6044 153.882 21.7475C154.094 21.8971 154.222 22.0594 154.316 22.2556C154.403 22.4582 154.434 22.672 154.434 22.9085C154.434 23.1384 154.375 23.3362 154.288 23.5324C154.196 23.7367 154.074 23.8845 153.86 24.0341C153.653 24.1772 153.402 24.2672 153.044 24.3493C152.68 24.428 152.243 24.4411 151.701 24.4411L147.901 24.4409ZM156.25 25.068C156.835 24.5567 157.126 23.8185 157.126 22.8538C157.126 22.2282 157.012 21.696 156.789 21.2651C156.561 20.8356 156.243 20.4835 155.826 20.2166C155.405 19.9449 154.909 19.7486 154.325 19.6248C153.819 19.514 153.195 19.4143 152.569 19.3885V19.3838H145.346V30.7685H147.901V26.2147H151.083L154.353 30.7684H157.361L153.905 26.0249C154.854 25.8477 155.684 25.5618 156.25 25.068Z" fill="black"/>
<path d="M123.813 26.86C123.609 27.5193 123.328 27.8247 122.794 28.2235C122.263 28.6221 121.604 28.7462 120.884 28.8218C120.256 28.8892 117.364 28.8394 116.634 28.8252V21.33H120.023C120.023 21.33 121.745 21.2978 122.467 21.711C123.186 22.1259 123.453 22.462 123.609 22.7706C123.767 23.0761 124.031 23.5039 124.031 24.6085C124.031 25.7117 124.016 26.2021 123.813 26.86ZM125.707 21.7433C125.348 21.1146 124.736 20.5936 123.908 20.1031C123.076 19.6142 121.714 19.4133 121.15 19.3827C120.587 19.3522 116.404 19.3827 116.404 19.3827H114.08V30.7674H116.634V30.7383H121.481C121.87 30.7383 123.06 30.6613 124.049 30.002C125.035 29.3444 125.239 29.0676 125.787 28.2091C126.334 27.3519 126.508 26.7151 126.554 26.2247C126.602 25.7342 126.633 24.8161 126.554 23.9267C126.475 23.0377 126.067 22.372 125.707 21.7433Z" fill="black"/>
</g>
</g>
<defs>
<clipPath id="clip0_2263_2027">
<rect width="173" height="50" fill="white"/>
</clipPath>
<clipPath id="clip1_2263_2027">
<rect width="173" height="26" fill="white" transform="translate(0 12)"/>
</clipPath>
</defs>
</svg>
