<svg width="173" height="50" viewBox="0 0 173 50" fill="none" xmlns="http://www.w3.org/2000/svg">
<g clip-path="url(#clip0_2263_2092)">
<path fill-rule="evenodd" clip-rule="evenodd" d="M18.173 17.266C18.3991 16.6718 18.5967 16.1061 18.5967 15.5126V15.4841H23.4895V15.569C22.8112 15.7673 22.6128 16.5869 22.6128 17.2375L24.4797 31.1251C24.6495 32.4548 24.7907 33.2173 25.9221 34.0099V34.0947H20.4628V34.0099C21.4522 33.6988 21.6227 32.8507 21.6227 31.8883L20.0105 18.2562L13.6752 34.4621C12.2606 33.3878 11.8647 32.6238 11.1864 31.0402L5.81268 18.2847L4.2005 30.4459C3.97437 32.1715 3.77604 33.4156 5.10575 34.0099V34.0947H0.496094V34.0099C1.68457 32.9634 1.8536 31.5773 2.07973 30.05L3.6919 18.1998C3.80534 17.408 4.11561 16.2759 2.8152 15.5697V15.4848H7.76442V15.5134C7.76442 15.9656 7.9913 16.3901 8.16033 16.786L13.4777 29.2597L18.173 17.266ZM47.2741 24.5907C47.2741 30.3603 42.4939 34.5462 36.8663 34.5462C31.2657 34.5462 26.5426 30.5301 26.5426 24.7327C26.5426 19.359 31.2094 14.8613 37.1487 15.0033C43.0889 14.9747 47.2741 19.4995 47.2741 24.5907ZM29.767 24.4773C29.767 28.4378 32.5669 32.5096 37.0075 32.5096C41.3069 32.5096 44.0505 29.3709 44.0505 25.1571C44.0505 21.0268 41.4203 17.0392 36.9512 17.0392C32.5669 17.0392 29.767 20.2072 29.767 24.4773ZM52.4164 30.4174C52.4164 32.0003 52.3878 33.1316 53.8873 34.0091V34.094H48.881V34.0091C50.3797 33.1316 50.3797 32.0003 50.3797 30.4174V19.1321C50.3797 17.5485 50.3797 16.4171 48.9088 15.5682V15.4833H53.0384V15.5119C53.1511 15.8514 53.2645 15.9927 53.4629 16.2188L53.858 16.7845L64.2095 29.8509V19.1321C64.2095 17.5485 64.238 16.4171 62.7385 15.5682V15.4833H67.717V15.5682C66.2461 16.4164 66.2461 17.5478 66.2461 19.1321V35C64.238 34.3209 63.3613 33.3878 62.1165 31.7749L52.4164 19.4717V30.4174ZM83.9523 18.9901C82.3972 18.0008 80.5867 17.378 78.7198 17.378C74.8171 17.378 72.1006 20.235 72.1006 24.3353C72.1006 28.4927 74.9298 32.1978 79.284 32.1978C81.4055 32.1978 83.5271 31.4346 85.309 30.4166H85.3939L83.9515 33.6973C82.6218 34.3194 81.1516 34.5455 79.6799 34.5455C73.0051 34.5455 68.8762 30.8125 68.8762 24.7597C68.8762 18.9053 73.0051 15.0303 78.804 15.0303C80.5296 15.0303 82.283 15.3413 83.9515 15.7372L83.9523 18.9901ZM94.4975 32.0574C96.4215 32.17 98.0892 31.5202 99.5039 30.3317H99.5887L98.1186 34.094H86.493V34.0091C87.9354 33.4998 87.7663 31.4075 87.7663 30.1342V19.4717C87.7663 18.1713 87.9354 16.1061 86.493 15.569V15.4841H91.8952V15.569C90.4528 16.1061 90.6511 18.1991 90.6511 19.4717V31.8027L94.4975 32.0574ZM105.325 31.7185L108.916 32.0574C110.782 32.2279 112.734 31.6337 114.149 30.3888H114.234L112.96 34.094H101.166V34.0091C102.609 33.4998 102.44 31.4075 102.44 30.1342V19.4717C102.44 18.1713 102.609 16.1061 101.166 15.569V15.4841H110.218C110.698 15.4841 111.179 15.5404 111.546 15.3428H111.631V18.6521H111.546C110.67 17.6341 109.511 17.5207 108.21 17.5207C107.22 17.5207 106.231 17.5493 105.325 17.7183V22.9793H108.691C109.143 22.9793 109.595 22.9793 109.935 22.8095H110.02V25.8077H109.935C109.481 24.9874 108.294 25.0152 107.417 25.0152H105.325V31.7185ZM122.514 15.4833C126.304 15.4833 128.368 17.4629 128.368 20.0366C128.368 22.5255 126.191 24.4773 123.873 25.0144L127.945 30.1334C129.133 31.6051 130.914 33.0753 132.527 34.0932H129.926C128.426 34.0932 127.493 33.7251 126.645 32.6786L123.194 28.407L120.592 24.4194C122.855 24.0799 125.484 23.0334 125.484 20.3747C125.484 18.3388 123.731 17.1503 121.837 17.2352C121.191 17.2687 120.549 17.3442 119.913 17.4614V30.1319C119.913 31.4331 119.742 33.4975 121.186 34.0068V34.0917H115.784V34.0068C117.227 33.4975 117.028 31.4053 117.028 30.1319V19.4717C117.028 18.1713 117.227 16.1061 115.784 15.569V15.4841L122.514 15.4833Z" fill="#222734"/>
</g>
<defs>
<clipPath id="clip0_2263_2092">
<rect width="173" height="50" fill="white"/>
</clipPath>
</defs>
</svg>
