<svg width="173" height="50" viewBox="0 0 173 50" fill="none" xmlns="http://www.w3.org/2000/svg">
<g clip-path="url(#clip0_2263_2154)">
<path d="M29.5387 17.1964C28.0228 15.6733 26.34 15 24.0871 15C21.8341 15 20.1467 15.6733 18.6261 17.1918C16.6559 19.1653 16.6559 21.8354 16.6606 24.6633V25.332C16.6559 28.1553 16.6559 30.8254 18.6261 32.7989C20.142 34.3174 21.8248 35 24.0871 35C26.3493 35 28.0275 34.3174 29.5387 32.7989C31.5136 30.8254 31.5089 28.1553 31.5089 25.332V24.6633C31.5089 21.8354 31.5136 19.1653 29.5387 17.1918M26.2149 30.0221C25.8533 30.4957 25.1069 31.0019 24.0871 31.0019C23.0672 31.0019 22.3162 30.4957 21.9593 30.0221C21.4725 29.3905 21.1851 28.7358 21.1851 24.9977C21.1851 21.2596 21.4957 20.5537 21.9593 19.9454C22.4136 19.3511 23.2109 18.9981 24.0871 18.9981C24.9632 18.9981 25.7559 19.3511 26.2149 19.9454C26.6831 20.5584 26.9798 21.241 26.9798 24.9977C26.9798 28.7544 26.6924 29.3905 26.2149 30.0221Z" fill="#1D1D1B"/>
<path d="M42.5787 23.0241L40.1635 22.6852C39.5237 22.6109 39.0277 22.3926 38.6708 22.0443C38.2582 21.6311 38.2118 21.1574 38.2118 20.9717C38.2118 19.9408 39.0231 18.9053 40.8403 18.9053H40.9933C41.8833 18.9053 43.3807 18.896 44.6231 20.0197C44.6602 19.9779 47.386 17.2521 47.4416 17.2057C45.8376 15.678 43.8489 15 40.984 15C36.7284 15 33.8681 17.4658 33.8681 21.1342C33.8681 22.8105 34.3085 24.1247 35.1893 25.0255C36.0469 25.9171 37.3681 26.4929 39.0926 26.739L41.5171 27.078C42.1569 27.1616 42.6436 27.3613 42.9588 27.6678C43.2602 28.0021 43.4039 28.4386 43.4039 28.9958C43.4039 30.3053 42.3469 30.9972 40.3396 30.9972C39.4403 30.9972 37.2383 30.8718 35.88 29.6552C35.8429 29.697 33.0569 32.4925 33.0059 32.5389C34.7489 34.2663 36.937 35 40.3072 35C44.0575 35 47.8449 33.1008 47.8449 28.8844C47.8449 26.9619 47.3814 25.5688 46.4171 24.6355C45.592 23.8089 44.3078 23.2703 42.588 23.0241" fill="#1D1D1B"/>
<path d="M63.927 28.8844C63.927 26.9619 63.4588 25.5688 62.4992 24.6308C61.674 23.8043 60.3899 23.2703 58.6793 23.0241L56.2594 22.6852C55.6197 22.6109 55.1144 22.3926 54.7621 22.0443C54.3541 21.6311 54.3078 21.1574 54.3078 20.9717C54.3078 19.9408 55.119 18.9053 56.927 18.9053H57.0846C57.9793 18.9053 59.4766 18.896 60.719 20.0197C60.7607 19.9779 63.4819 17.2521 63.5283 17.2057C61.9289 15.678 59.9356 15 57.066 15C52.8104 15 49.9501 17.4658 49.9501 21.1342C49.9501 22.8105 50.4044 24.1247 51.2852 25.0255C52.1429 25.9171 53.4594 26.4929 55.1886 26.739L57.5991 27.078C58.2435 27.1616 58.7349 27.3613 59.0362 27.6678C59.3515 28.0021 59.4905 28.4386 59.4905 28.9958C59.4905 30.3053 58.429 30.9972 56.4217 30.9972C55.5316 30.9972 53.3203 30.8718 51.9667 29.6552C51.9296 29.697 49.1389 32.4925 49.0879 32.5389C50.8402 34.2663 53.0237 35 56.3939 35C60.1488 35 63.9316 33.1008 63.9316 28.8844" fill="#1D1D1B"/>
<path d="M71.2191 15.1719H66.6992V34.8282H71.2191V15.1719Z" fill="#1D1D1B"/>
<path d="M89.0349 26.27V23.6743H81.5853V27.3891H84.5429V27.8674C84.5429 28.8147 84.2462 29.6227 83.7223 30.1567C83.1939 30.7186 82.4104 31.0019 81.3859 31.0019C80.4959 31.0019 79.731 30.6629 79.2859 30.0778C78.8223 29.4648 78.5117 28.7776 78.5117 24.9977C78.5117 21.2178 78.8223 20.5538 79.2859 19.9408C79.7449 19.3464 80.5237 18.9935 81.3859 18.9935C83.0641 18.9935 83.9402 19.6482 84.3992 21.2456H88.9607C88.7011 19.7318 87.3985 15 81.3906 15C79.1515 15 77.478 15.6687 75.9667 17.1918C73.9919 19.1653 73.9919 21.8354 73.9965 24.6633V25.332C73.9965 28.1553 73.9919 30.8254 75.9667 32.7989C77.4316 34.2802 79.2117 35 81.3906 35C83.8846 35 85.5859 34.336 87.0694 32.8036C88.5065 31.3362 89.0396 29.567 89.0396 26.27" fill="#1D1D1B"/>
<path d="M116.867 34.9998C119.125 34.9998 120.812 34.3172 122.328 32.7987C124.298 30.8252 124.294 28.1551 124.294 25.3271V24.6585C124.294 21.8305 124.298 19.1604 122.328 17.1915C120.812 15.6684 119.134 14.9951 116.867 14.9951C114.6 14.9951 112.936 15.6684 111.416 17.1915C109.436 19.1651 109.445 21.8305 109.445 24.6585V25.3271C109.445 28.1551 109.441 30.8205 111.416 32.7987C112.936 34.3172 114.619 34.9998 116.867 34.9998ZM114.744 19.9406C115.198 19.3462 115.991 18.9933 116.867 18.9933C117.743 18.9933 118.55 19.3462 119.004 19.9406C119.463 20.5535 119.774 21.2408 119.774 24.9974C119.774 28.7541 119.477 29.3903 119.004 30.0218C118.643 30.4955 117.892 31.0016 116.867 31.0016C115.843 31.0016 115.11 30.4955 114.744 30.0218C114.262 29.3903 113.97 28.7402 113.97 24.9974C113.97 21.2547 114.276 20.5535 114.744 19.9406Z" fill="#1D1D1B"/>
<path d="M134.483 30.802C133.611 30.802 132.814 30.4491 132.36 29.8501C131.896 29.2371 131.586 28.5545 131.586 24.7978C131.586 24.7978 131.59 15.5245 131.59 15.167H127.07V25.4851C127.07 27.9183 127.07 30.6581 129.036 32.6269C130.552 34.15 132.235 34.8234 134.488 34.8234H139.999V30.7974H134.488L134.483 30.802Z" fill="#1D1D1B"/>
<path d="M11.2185 26.479C11.9556 26.1076 14.3709 24.6495 14.3709 21.4175C14.3709 18.1856 12.0808 15.1719 7.73709 15.1719H0V34.8282H4.5245V27.3938H5.3404C6.41126 27.3938 6.77748 27.9279 7.12053 28.6383C8.12185 30.7651 10.0457 34.8004 10.055 34.8282H15.3026C15.2563 34.7307 11.0331 26.5766 11.0331 26.5766L11.2185 26.4837V26.479ZM7.5053 23.6465H4.5245V19.1839H7.5053C9.02583 19.1839 9.84636 20.3356 9.84636 21.4175C9.84636 22.4995 9.02119 23.6465 7.5053 23.6465Z" fill="#1D1D1B"/>
<path d="M96.3272 25.8057V19.1793H99.2292C100.105 19.1793 100.903 19.5322 101.357 20.1312C101.788 20.7024 102.08 21.3339 102.122 24.4312V34.8236H106.651V24.5009C106.651 22.0723 106.651 19.3325 104.681 17.3637C103.165 15.8452 101.482 15.1719 99.2246 15.1719H91.8027V34.8282H96.3272C96.3272 34.7772 96.318 25.8104 96.318 25.8104" fill="#1D1D1B"/>
</g>
<defs>
<clipPath id="clip0_2263_2154">
<rect width="140" height="20" fill="white" transform="translate(0 15)"/>
</clipPath>
</defs>
</svg>
