<svg width="120" height="50" viewBox="0 0 120 50" fill="none" xmlns="http://www.w3.org/2000/svg">
<g clip-path="url(#clip0_2263_1780)">
<g clip-path="url(#clip1_2263_1780)">
<path d="M43.7965 18.8567C47.2409 18.1167 46.7707 13.9958 46.6698 13.0954C46.5 11.7065 44.8676 9.28114 42.6525 9.47492C39.8636 9.72336 39.4565 13.7518 39.4565 13.7518C39.0787 15.6171 40.3578 19.5985 43.7965 18.8567ZM50.1929 11.9487C52.0942 11.9487 53.6311 9.75758 53.6311 7.05092C53.6311 4.34381 52.0942 2.15625 50.1929 2.15625C48.2907 2.15625 46.7498 4.34381 46.7498 7.05092C46.7498 9.75758 48.2902 11.9487 50.1929 11.9487ZM58.3902 12.2709C60.9347 12.6042 62.5662 9.88914 62.8925 7.83181C63.2258 5.77714 61.5813 3.38736 59.7836 2.97714C57.9778 2.56203 55.7236 5.45269 55.5205 7.33847C55.2729 9.64514 55.848 11.9451 58.3902 12.2709ZM68.4698 15.7274C68.4698 14.7434 67.6551 11.7771 64.6209 11.7771C61.5813 11.7771 61.1787 14.5763 61.1787 16.554C61.1787 18.442 61.3365 21.0745 65.1111 20.9927C68.8827 20.9091 68.4698 16.718 68.4698 15.7274ZM64.6209 24.3651C64.6209 24.3651 60.6867 21.322 58.3902 18.0309C55.2729 13.1785 50.848 15.1549 49.3689 17.6189C47.8942 20.0891 45.6018 21.6491 45.2738 22.0634C44.9427 22.4691 40.5218 24.858 41.5027 29.2194C42.4858 33.578 45.9333 33.4958 45.9333 33.4958C45.9333 33.4958 48.4742 33.7438 51.4209 33.0851C54.3738 32.4278 56.9142 33.2469 56.9142 33.2469C56.9142 33.2469 63.8022 35.5567 65.6845 31.1123C67.5693 26.6718 64.6209 24.3651 64.6209 24.3651Z" fill="#006CB7"/>
<path d="M50.8064 20.1201V23.0481H48.4207C48.4207 23.0481 46.0362 23.2459 45.2016 25.9486C44.9104 27.7526 45.4584 28.8157 45.554 29.0428C45.6504 29.2695 46.4211 30.5895 48.3562 30.9761H52.8331V20.1521L50.8064 20.1201ZM50.7704 29.2001H48.9669C48.9669 29.2001 47.7104 29.1343 47.3278 27.6881C47.1304 27.0468 47.3571 26.3068 47.4567 26.0157C47.5478 25.7241 47.9696 25.0503 48.8393 24.7912H50.77L50.7704 29.2001Z" fill="white"/>
<path d="M53.9277 23.3087V29.0083C53.9277 29.0083 54.0211 30.4274 56.0211 30.9434H61.1731V23.3087H58.9495V29.0407H56.8268C56.8268 29.0407 56.1486 28.9425 56.0211 28.3967V23.2754L53.9277 23.3087Z" fill="white"/>
<path d="M85.7191 19.5642V17.1611H69.8915L69.8711 19.5994H76.6746L76.0373 21.0576H70.2511V33.1154H83.9969C85.4342 33.1154 85.3071 31.6642 85.3071 31.6642V21.058H79.512L80.0213 19.5647L85.7191 19.5642ZM82.6453 30.5407C82.6453 30.5407 82.4787 30.9411 82.2431 30.9411H73.1213V28.1287H82.6458L82.6453 30.5407ZM82.6298 25.806H73.1204V23.1691H82.6298V25.806Z" fill="#ED1C24"/>
<path d="M103.802 17.2287H97.5926V16.0122H94.6802V17.1687H87.5566V33.0935H90.1189V19.2229H103.802V17.2287ZM102.128 20.5242V19.6029H99.6242V20.5242H94.4744V19.6353H92.1024V20.5242H90.4998L90.5313 22.3278H92.1024V25.7158H100.766C101.968 25.7158 102.127 24.4478 102.127 24.4478V22.3273H103.961V20.5238H102.128V20.5242ZM99.6242 23.5602C99.6242 23.5602 99.4011 23.9709 99.1157 23.9709H94.446V22.2927H99.6238V23.5602H99.6242ZM90.8495 28.1855L94.8371 30.4984C94.5215 30.846 93.1593 31.2864 93.1593 31.2864H90.5002V33.0647H94.11C95.1873 32.8438 97.1811 31.8304 97.1811 31.8304C98.0064 32.5882 99.5922 32.9038 99.5922 32.9038H103.707V31.1304H100.605C99.7695 31.0055 99.0184 30.5291 99.0184 30.5291L103.707 27.8367V26.3784H90.8504V28.1855H90.8495ZM99.1473 28.1558L96.8664 29.3584L94.7757 28.1558H99.1473Z" fill="#ED1C24"/>
<path d="M34.6738 19.7662H38.1285V16.7227H34.6738V19.7662ZM34.6738 33.0311H38.1285V21.092H34.6738V33.0311Z" fill="#ED1C24"/>
<path d="M29.056 21.1016L21.6854 21.0825V23.5923H28.1485C28.1485 23.5923 29.6867 23.9719 29.6867 24.9479V25.8319H23.8383C23.8383 25.8319 21.5383 26.0439 20.7996 28.7919C20.6725 30.0785 20.8418 30.7105 20.9285 30.9452C21.0116 31.1781 21.6854 32.695 23.6912 33.0745H33.0036V24.5225C33.0036 24.5225 32.5601 21.5879 29.056 21.1016ZM29.6867 30.7114H24.9801C24.3476 30.4563 24.1369 30.035 24.0925 29.9292C24.0489 29.8252 23.9023 29.4474 24.0729 29.0647C24.4538 28.3274 25.0849 28.1576 25.0849 28.1576H29.6867V30.7114Z" fill="#ED1C24"/>
<path d="M20.0434 28.8364C20.1452 25.9293 17.5372 24.9244 17.5372 24.9244C19.7448 23.7698 19.4643 20.8595 19.4643 20.8595C19.2252 16.4058 13.7834 16.6133 13.7834 16.6133H5.375V33.212H14.8692C20.4448 33.1902 20.0434 28.8364 20.0434 28.8364ZM14.6786 30.1271V30.1347H8.991V26.5533H14.6506L14.8421 26.592C14.8421 26.592 15.919 26.7889 16.3092 27.7573C16.3092 27.7573 16.535 28.6671 16.0474 29.3435C16.0474 29.3435 15.6888 29.9689 14.6786 30.1271ZM15.8843 22.4311C15.8843 22.4311 15.5021 23.1338 14.4879 23.2849H8.991V19.8498H14.4643C14.4643 19.8498 15.6537 19.7947 16.0474 20.7395C16.0474 20.7395 16.2839 21.7435 15.8843 22.4311Z" fill="#ED1C24"/>
</g>
</g>
<defs>
<clipPath id="clip0_2263_1780">
<rect width="120" height="50" fill="white"/>
</clipPath>
<clipPath id="clip1_2263_1780">
<rect width="108.889" height="40" fill="white" transform="translate(0 -2)"/>
</clipPath>
</defs>
</svg>
